<svg width="24" height="24" viewBox="0 0 24 24" fill="none" xmlns="http://www.w3.org/2000/svg">
<path d="M21.8498 0H1.74208C0.778869 0 0 0.760434 0 1.70061V21.8913C0 22.8315 0.778869 23.5965 1.74208 23.5965H21.8498C22.813 23.5965 23.5965 22.8315 23.5965 21.8959V1.70061C23.5965 0.760434 22.813 0 21.8498 0ZM7.0006 20.1077H3.498V8.84408H7.0006V20.1077ZM5.2493 7.30938C4.12478 7.30938 3.21687 6.40147 3.21687 5.28156C3.21687 4.16165 4.12478 3.25373 5.2493 3.25373C6.36921 3.25373 7.27712 4.16165 7.27712 5.28156C7.27712 6.39686 6.36921 7.30938 5.2493 7.30938ZM20.1077 20.1077H16.6097V14.6326C16.6097 13.3283 16.5867 11.6462 14.7893 11.6462C12.9689 11.6462 12.6923 13.0702 12.6923 14.5404V20.1077H9.19895V8.84408H12.5541V10.3834H12.6002C13.0656 9.49851 14.2086 8.56295 15.9092 8.56295C19.4533 8.56295 20.1077 10.8949 20.1077 13.9275V20.1077V20.1077Z" fill="white"/>
</svg>
