<svg width="23" height="23" viewBox="0 0 23 23" fill="none" xmlns="http://www.w3.org/2000/svg">
<path d="M21.7237 21.7237L16.624 16.624M16.624 16.624C17.4963 15.7517 18.1883 14.7161 18.6604 13.5763C19.1325 12.4366 19.3755 11.215 19.3755 9.98131C19.3755 8.74765 19.1325 7.52607 18.6604 6.38631C18.1883 5.24656 17.4963 4.21095 16.624 3.33862C15.7517 2.46629 14.7161 1.77432 13.5763 1.30222C12.4365 0.830115 11.215 0.587128 9.9813 0.587128C8.74764 0.587128 7.52606 0.830115 6.3863 1.30222C5.24655 1.77432 4.21094 2.46629 3.33861 3.33862C1.57686 5.10037 0.58712 7.48982 0.58712 9.98131C0.58712 12.4728 1.57686 14.8622 3.33861 16.624C5.10036 18.3857 7.48981 19.3755 9.9813 19.3755C12.4728 19.3755 14.8622 18.3857 16.624 16.624Z" stroke="white" stroke-width="1.17424" stroke-linecap="round" stroke-linejoin="round"/>
</svg>
