<svg width="24" height="24" viewBox="0 0 24 24" fill="none" xmlns="http://www.w3.org/2000/svg">
<path fill-rule="evenodd" clip-rule="evenodd" d="M11.808 0C5.27849 0 0 5.3174 0 11.8957C0 17.1542 3.38211 21.6053 8.07399 23.1807C8.66059 23.2991 8.87546 22.9248 8.87546 22.6098C8.87546 22.334 8.85613 21.3888 8.85613 20.4038C5.57142 21.113 4.88741 18.9858 4.88741 18.9858C4.35954 17.6071 3.5774 17.2528 3.5774 17.2528C2.50232 16.5241 3.65571 16.5241 3.65571 16.5241C4.84826 16.6029 5.47402 17.7451 5.47402 17.7451C6.52952 19.5569 8.23037 19.045 8.91462 18.7298C9.01227 17.9617 9.32527 17.4299 9.6576 17.1346C7.03782 16.8588 4.28147 15.8347 4.28147 11.2654C4.28147 9.96553 4.75037 8.90205 5.49336 8.07495C5.37613 7.7796 4.96548 6.55829 5.61082 4.92367C5.61082 4.92367 6.60783 4.60849 8.85589 6.14474C9.81836 5.88435 10.8109 5.75188 11.808 5.75077C12.805 5.75077 13.8214 5.88878 14.7599 6.14474C17.0082 4.60849 18.0052 4.92367 18.0052 4.92367C18.6505 6.55829 18.2396 7.7796 18.1224 8.07495C18.885 8.90205 19.3345 9.96553 19.3345 11.2654C19.3345 15.8347 16.5782 16.839 13.9388 17.1346C14.3691 17.5087 14.7403 18.2176 14.7403 19.3403C14.7403 20.9356 14.721 22.2158 14.721 22.6096C14.721 22.9248 14.9361 23.2991 15.5225 23.181C20.2143 21.6051 23.5964 17.1542 23.5964 11.8957C23.6158 5.3174 18.318 0 11.808 0Z" fill="white"/>
</svg>
