<svg width="24" height="24" viewBox="0 0 24 24" fill="none" xmlns="http://www.w3.org/2000/svg">
<path d="M22.6094 22.6094L17.3018 17.3017M17.3018 17.3017C18.2097 16.3938 18.9298 15.316 19.4212 14.1298C19.9125 12.9436 20.1654 11.6722 20.1654 10.3882C20.1654 9.10428 19.9125 7.8329 19.4212 6.64667C18.9298 5.46045 18.2097 4.38262 17.3018 3.47473C16.3939 2.56683 15.316 1.84665 14.1298 1.3553C12.9436 0.863955 11.6722 0.611061 10.3883 0.611061C9.1043 0.611061 7.83292 0.863955 6.6467 1.3553C5.46047 1.84665 4.38265 2.56683 3.47475 3.47473C1.64118 5.30831 0.611084 7.79517 0.611084 10.3882C0.611084 12.9813 1.64118 15.4682 3.47475 17.3017C5.30833 19.1353 7.79519 20.1654 10.3883 20.1654C12.9813 20.1654 15.4682 19.1353 17.3018 17.3017Z" stroke="white" stroke-width="1.22212" stroke-linecap="round" stroke-linejoin="round"/>
</svg>
