<?xml version="1.0" encoding="UTF-8"?>
<svg version="1.1" xmlns="http://www.w3.org/2000/svg" width="496" height="496">
<path d="M0 0 C1.41792847 -0.00845947 1.41792847 -0.00845947 2.86450195 -0.01708984 C7.65334048 0.03171255 12.11710598 0.3874955 16.8125 1.3359375 C26.96648269 3.17636227 37.46978849 2.38924545 47.74438477 2.19604492 C61.60449684 1.95513365 74.3246475 1.88117644 86.75 8.875 C87.36770264 9.22087158 87.98540527 9.56674316 88.62182617 9.9230957 C90.57457103 11.03028165 92.50759886 12.16601447 94.4375 13.3125 C95.07558594 13.68793945 95.71367187 14.06337891 96.37109375 14.45019531 C125.58419618 31.77526964 152.16375776 53.9646407 176.94921875 77.0703125 C179.34036263 79.30688193 179.34036263 79.30688193 181.76953125 80.9921875 C182.31996094 81.42789063 182.87039063 81.86359375 183.4375 82.3125 C183.4375 82.9725 183.4375 83.6325 183.4375 84.3125 C184.0975 84.3125 184.7575 84.3125 185.4375 84.3125 C185.4375 84.9725 185.4375 85.6325 185.4375 86.3125 C186.03046875 86.5703125 186.6234375 86.828125 187.234375 87.09375 C191.15869315 89.2646494 193.61246047 92.89483506 196.4375 96.3125 C197.08074219 97.05757813 197.72398437 97.80265625 198.38671875 98.5703125 C211.74403847 114.47313323 218.06486955 130.95484976 216.69921875 151.7734375 C213.9035207 178.89588124 190.37014149 207.31166867 172.4375 226.3125 C171.82648438 226.97636719 171.21546875 227.64023437 170.5859375 228.32421875 C166.09258281 233.03746101 161.1484799 236.98869477 156.0065918 240.95581055 C149.87432752 245.69923733 143.99466611 250.71716926 138.15673828 255.81640625 C136.94253109 256.87301825 135.72146294 257.92177066 134.49560547 258.96484375 C129.79451506 262.99661485 125.50278568 267.25606181 121.3125 271.8125 C120.6736084 272.49812012 120.0347168 273.18374023 119.37646484 273.89013672 C116.11421342 277.39463056 112.88045062 280.92288824 109.671875 284.4765625 C97.05033517 298.3783281 97.05033517 298.3783281 90.4375 301.3125 C89.4475 301.3125 88.4575 301.3125 87.4375 301.3125 C87.1075 302.3025 86.7775 303.2925 86.4375 304.3125 C83.96255431 305.30006957 81.61517394 306.09070944 79.0625 306.8125 C78.32862061 307.02753174 77.59474121 307.24256348 76.83862305 307.46411133 C75.36732541 307.89331379 73.89459477 308.31763721 72.42041016 308.73681641 C70.82571173 309.19979337 69.24418736 309.70802676 67.66796875 310.23046875 C55.84815944 313.99218512 42.80076313 314.19754796 30.48852539 314.60083008 C20.4245749 314.9427482 12.22611654 316.55843551 2.828125 320.37109375 C-6.56748027 322.97978139 -16.87214018 322.76015761 -26.5625 323.3125 C-27.62049805 323.38339844 -28.67849609 323.45429688 -29.76855469 323.52734375 C-50.86112497 324.84353088 -69.09524039 319.83917754 -85.5625 306.3125 C-86.325625 305.7040625 -87.08875 305.095625 -87.875 304.46875 C-91.91314195 301.10363171 -95.34908944 297.39772338 -98.73046875 293.3828125 C-100.64830448 291.21553545 -102.69838738 289.28767449 -104.8125 287.3125 C-126.44881416 265.78676325 -135.23843127 233.56410263 -143.625 205.0625 C-144.03697632 203.66439087 -144.03697632 203.66439087 -144.45727539 202.23803711 C-152.59855006 173.61243243 -151.64475768 145.46943095 -137.25 119.1875 C-123.36979693 94.3818595 -104.88230321 72.90914486 -82.5625 55.3125 C-79.80606565 53.09124121 -77.05959831 50.85778695 -74.3125 48.625 C-73.65080811 48.09003906 -72.98911621 47.55507812 -72.30737305 47.00390625 C-70.38622306 45.44753158 -68.47396648 43.88074326 -66.5625 42.3125 C-65.92812012 41.80283691 -65.29374023 41.29317383 -64.64013672 40.76806641 C-61.05790128 37.82271482 -58.49966189 35.1485427 -56.1875 31.0625 C-52.60324542 25.15571275 -48.39621976 20.23300109 -43.5625 15.3125 C-42.99917969 14.73628906 -42.43585938 14.16007812 -41.85546875 13.56640625 C-30.25461289 2.69942449 -15.28872004 0.08610591 0 0 Z " fill="#1B1B1B" transform="translate(223.5625,87.6875)"/>
<path d="M0 0 C1.41792847 -0.00845947 1.41792847 -0.00845947 2.86450195 -0.01708984 C7.65334048 0.03171255 12.11710598 0.3874955 16.8125 1.3359375 C26.96648269 3.17636227 37.46978849 2.38924545 47.74438477 2.19604492 C61.60449684 1.95513365 74.3246475 1.88117644 86.75 8.875 C87.36770264 9.22087158 87.98540527 9.56674316 88.62182617 9.9230957 C90.57457103 11.03028165 92.50759886 12.16601447 94.4375 13.3125 C95.07558594 13.68793945 95.71367187 14.06337891 96.37109375 14.45019531 C125.58419618 31.77526964 152.16375776 53.9646407 176.94921875 77.0703125 C179.34036263 79.30688193 179.34036263 79.30688193 181.76953125 80.9921875 C182.31996094 81.42789063 182.87039063 81.86359375 183.4375 82.3125 C183.4375 82.9725 183.4375 83.6325 183.4375 84.3125 C184.0975 84.3125 184.7575 84.3125 185.4375 84.3125 C185.4375 84.9725 185.4375 85.6325 185.4375 86.3125 C186.03046875 86.5703125 186.6234375 86.828125 187.234375 87.09375 C191.15869315 89.2646494 193.61246047 92.89483506 196.4375 96.3125 C197.08074219 97.05757813 197.72398437 97.80265625 198.38671875 98.5703125 C212.86640333 115.80938687 217.25580679 132.12064921 216.4375 154.3125 C214.4575 155.3025 214.4575 155.3025 212.4375 156.3125 C211.50287146 153.50861438 211.19443126 151.34176148 210.97265625 148.41796875 C210.85567383 146.98420898 210.85567383 146.98420898 210.73632812 145.52148438 C210.57971064 143.51911042 210.42602879 141.51650453 210.27539062 139.51367188 C209.86076271 134.49431438 209.35170287 130.02992883 207.4375 125.3125 C206.7775 125.3125 206.1175 125.3125 205.4375 125.3125 C205.4375 123.6625 205.4375 122.0125 205.4375 120.3125 C204.4475 119.9825 203.4575 119.6525 202.4375 119.3125 C201.5234375 117.53515625 201.5234375 117.53515625 200.8125 115.375 C200.10001244 113.26435136 199.43466245 111.3068249 198.4375 109.3125 C197.7775 109.6425 197.1175 109.9725 196.4375 110.3125 C196.4375 108.9925 196.4375 107.6725 196.4375 106.3125 C195.7775 106.3125 195.1175 106.3125 194.4375 106.3125 C194.1075 104.9925 193.7775 103.6725 193.4375 102.3125 C192.7775 102.3125 192.1175 102.3125 191.4375 102.3125 C191.1075 101.3225 190.7775 100.3325 190.4375 99.3125 C189.2 98.3534375 189.2 98.3534375 187.9375 97.375 C185.38191182 95.26663975 184.78044784 94.5133465 184.4375 91.3125 C183.798125 91.209375 183.15875 91.10625 182.5 91 C181.4790625 90.6596875 181.4790625 90.6596875 180.4375 90.3125 C180.1075 89.3225 179.7775 88.3325 179.4375 87.3125 C178.4475 87.3125 177.4575 87.3125 176.4375 87.3125 C176.4375 86.3225 176.4375 85.3325 176.4375 84.3125 C175.4475 83.9825 174.4575 83.6525 173.4375 83.3125 C173.4375 82.6525 173.4375 81.9925 173.4375 81.3125 C172.798125 81.044375 172.15875 80.77625 171.5 80.5 C169.4375 79.3125 169.4375 79.3125 168.4375 76.3125 C167.7775 76.3125 167.1175 76.3125 166.4375 76.3125 C165.10416667 74.97916667 163.77083333 73.64583333 162.4375 72.3125 C160.43204704 70.76080609 158.39403639 69.26377489 156.33984375 67.77734375 C154.53300625 66.38604177 152.93441462 65.03325232 151.4375 63.3125 C151.4375 62.6525 151.4375 61.9925 151.4375 61.3125 C149.9525 61.8075 149.9525 61.8075 148.4375 62.3125 C145.34956745 60.2538783 144.95911393 59.4571688 143.4375 56.3125 C142.7775 55.9825 142.1175 55.6525 141.4375 55.3125 C141.4375 54.6525 141.4375 53.9925 141.4375 53.3125 C140.756875 53.065 140.07625 52.8175 139.375 52.5625 C129.56615497 48.38852339 129.56615497 48.38852339 127.4375 43.3125 C126.11357028 42.30008315 124.78150833 41.29810611 123.4375 40.3125 C123.4375 39.6525 123.4375 38.9925 123.4375 38.3125 C122.7775 38.3125 122.1175 38.3125 121.4375 38.3125 C121.4375 38.9725 121.4375 39.6325 121.4375 40.3125 C120.7775 40.3125 120.1175 40.3125 119.4375 40.3125 C119.4375 39.6525 119.4375 38.9925 119.4375 38.3125 C118.7775 38.3125 118.1175 38.3125 117.4375 38.3125 C117.4375 37.6525 117.4375 36.9925 117.4375 36.3125 C115.9834375 35.94125 115.9834375 35.94125 114.5 35.5625 C113.489375 35.15 112.47875 34.7375 111.4375 34.3125 C110.5625 32.1875 110.5625 32.1875 110.4375 30.3125 C108.7875 30.3125 107.1375 30.3125 105.4375 30.3125 C105.1075 29.3225 104.7775 28.3325 104.4375 27.3125 C103.4475 26.9825 102.4575 26.6525 101.4375 26.3125 C101.4375 25.6525 101.4375 24.9925 101.4375 24.3125 C100.4475 24.6425 99.4575 24.9725 98.4375 25.3125 C95.92051368 24.23995123 93.76944455 22.76446548 91.4375 21.3125 C91.4375 20.6525 91.4375 19.9925 91.4375 19.3125 C89.7875 18.6525 88.1375 17.9925 86.4375 17.3125 C86.4375 16.6525 86.4375 15.9925 86.4375 15.3125 C85.715625 15.044375 84.99375 14.77625 84.25 14.5 C81.4375 13.3125 81.4375 13.3125 79.25 11.875 C67.93043401 5.58635223 51.12726106 4.08734793 38.51171875 6.984375 C37.0869455 7.50605363 35.67186504 8.05586511 34.2734375 8.64453125 C31.28351844 9.73235286 28.58398185 9.51333927 25.4375 9.3125 C25.4375 9.9725 25.4375 10.6325 25.4375 11.3125 C23.4375 12.3125 21.4375 13.3125 19.4375 14.3125 C18.468125 14.910625 17.49875 15.50875 16.5 16.125 C12.48936352 17.68014476 10.37428937 16.80847996 6.4375 15.3125 C5.8125 13 5.8125 13 5.4375 10.3125 C6.0975 9.3225 6.7575 8.3325 7.4375 7.3125 C7.4375 6.6525 7.4375 5.9925 7.4375 5.3125 C6.1175 5.3125 4.7975 5.3125 3.4375 5.3125 C3.1075 5.9725 2.7775 6.6325 2.4375 7.3125 C2.4375 6.6525 2.4375 5.9925 2.4375 5.3125 C1.79683594 5.44527344 1.15617188 5.57804687 0.49609375 5.71484375 C-3.43761332 6.51800004 -7.33092648 7.28162353 -11.3125 7.8125 C-15.68300292 8.48488506 -19.38286497 9.13286497 -22.5625 12.3125 C-23.325625 12.56 -24.08875 12.8075 -24.875 13.0625 C-28.45488715 14.72756379 -30.09534268 17.27599868 -32.5625 20.3125 C-33.305 20.663125 -34.0475 21.01375 -34.8125 21.375 C-35.67875 21.8390625 -35.67875 21.8390625 -36.5625 22.3125 C-36.69011719 23.03308594 -36.81773437 23.75367187 -36.94921875 24.49609375 C-38.41395878 31.22270243 -43.58890065 38.47276878 -49.3125 42.3125 C-53.63655326 44.62957236 -58.33557783 46.02347885 -63.0234375 47.41796875 C-65.68985948 48.15188367 -65.68985948 48.15188367 -67.5625 50.3125 C-68.614375 50.68375 -69.66625 51.055 -70.75 51.4375 C-75.00822752 53.13900932 -77.29574873 56.12932619 -80.08203125 59.66796875 C-80.57058594 60.21066406 -81.05914062 60.75335938 -81.5625 61.3125 C-82.2225 61.3125 -82.8825 61.3125 -83.5625 61.3125 C-83.5625 61.9725 -83.5625 62.6325 -83.5625 63.3125 C-84.8825 63.6425 -86.2025 63.9725 -87.5625 64.3125 C-87.65660156 64.910625 -87.75070313 65.50875 -87.84765625 66.125 C-88.73090825 68.82784765 -89.76587685 69.58633644 -92 71.3125 C-100.41960095 78.41464541 -106.79871285 86.20077545 -110.52734375 96.62109375 C-111.5625 99.3125 -111.5625 99.3125 -113.09375 101.58203125 C-115.16574637 105.43396066 -115.54842803 109.26379775 -116.125 113.5625 C-116.52665401 116.50949282 -116.99723766 119.38852518 -117.5625 122.3125 C-118.5525 122.8075 -118.5525 122.8075 -119.5625 123.3125 C-119.8925 124.3025 -120.2225 125.2925 -120.5625 126.3125 C-122.5 128.5 -122.5 128.5 -124.5625 130.3125 C-125.2225 130.3125 -125.8825 130.3125 -126.5625 130.3125 C-126.68367188 131.08335937 -126.80484375 131.85421875 -126.9296875 132.6484375 C-127.18105469 134.15277344 -127.18105469 134.15277344 -127.4375 135.6875 C-127.68113281 137.18410156 -127.68113281 137.18410156 -127.9296875 138.7109375 C-128.5625 141.3125 -128.5625 141.3125 -130.5625 143.3125 C-131.30222396 145.14645713 -131.98357941 147.00439317 -132.625 148.875 C-134.46527778 154.21527778 -134.46527778 154.21527778 -135.5625 155.3125 C-137.23680103 164.81068657 -136.71484738 174.77605654 -136.69287109 184.38476562 C-136.68747245 187.20187665 -136.6928629 190.01883107 -136.69921875 192.8359375 C-136.69855858 194.63802118 -136.69727869 196.44010477 -136.6953125 198.2421875 C-136.69733673 199.07869843 -136.69936096 199.91520935 -136.70144653 200.77706909 C-136.68541194 204.77009142 -136.48828264 208.40641464 -135.5625 212.3125 C-135.49790958 214.08227761 -135.47638935 215.85420152 -135.5 217.625 C-135.50902344 218.50800781 -135.51804687 219.39101563 -135.52734375 220.30078125 C-135.53894531 220.96464844 -135.55054688 221.62851562 -135.5625 222.3125 C-136.5525 221.9825 -137.5425 221.6525 -138.5625 221.3125 C-139.60571289 218.89501953 -139.60571289 218.89501953 -140.53515625 215.6953125 C-141.04852539 213.94734375 -141.04852539 213.94734375 -141.57226562 212.1640625 C-141.91966797 210.93429687 -142.26707031 209.70453125 -142.625 208.4375 C-142.97626953 207.24640625 -143.32753906 206.0553125 -143.68945312 204.828125 C-152.24746714 175.25525238 -152.23441521 146.54602695 -137.25 119.1875 C-123.36979693 94.3818595 -104.88230321 72.90914486 -82.5625 55.3125 C-79.80606565 53.09124121 -77.05959831 50.85778695 -74.3125 48.625 C-73.65080811 48.09003906 -72.98911621 47.55507812 -72.30737305 47.00390625 C-70.38622306 45.44753158 -68.47396648 43.88074326 -66.5625 42.3125 C-65.92812012 41.80283691 -65.29374023 41.29317383 -64.64013672 40.76806641 C-61.05790128 37.82271482 -58.49966189 35.1485427 -56.1875 31.0625 C-52.60324542 25.15571275 -48.39621976 20.23300109 -43.5625 15.3125 C-42.99917969 14.73628906 -42.43585938 14.16007812 -41.85546875 13.56640625 C-30.25461289 2.69942449 -15.28872004 0.08610591 0 0 Z " fill="#6C6C6C" transform="translate(223.5625,87.6875)"/>
<path d="M0 0 C0.33 0.66 0.66 1.32 1 2 C-0.5778125 2.2165625 -0.5778125 2.2165625 -2.1875 2.4375 C-5.1580783 2.87578204 -8.06146773 3.39722415 -11 4 C-12.03125 4.12375 -13.0625 4.2475 -14.125 4.375 C-17.28720959 5.06243687 -17.89080508 5.70739683 -20 8 C-21.175625 8.4021875 -21.175625 8.4021875 -22.375 8.8125 C-25.93720902 10.42397551 -27.55870675 12.99533139 -30 16 C-30.7425 16.350625 -31.485 16.70125 -32.25 17.0625 C-33.11625 17.5265625 -33.11625 17.5265625 -34 18 C-34.12761719 18.72058594 -34.25523437 19.44117187 -34.38671875 20.18359375 C-35.85145878 26.91020243 -41.02640065 34.16026878 -46.75 38 C-51.07405326 40.31707236 -55.77307783 41.71097885 -60.4609375 43.10546875 C-63.12735948 43.83938367 -63.12735948 43.83938367 -65 46 C-66.051875 46.37125 -67.10375 46.7425 -68.1875 47.125 C-72.44572752 48.82650932 -74.73324873 51.81682619 -77.51953125 55.35546875 C-78.00808594 55.89816406 -78.49664062 56.44085938 -79 57 C-79.66 57 -80.32 57 -81 57 C-81 57.66 -81 58.32 -81 59 C-82.32 59.33 -83.64 59.66 -85 60 C-85.09410156 60.598125 -85.18820313 61.19625 -85.28515625 61.8125 C-86.16840825 64.51534765 -87.20337685 65.27383644 -89.4375 67 C-97.85710095 74.10214541 -104.23621285 81.88827545 -107.96484375 92.30859375 C-109 95 -109 95 -110.53125 97.26953125 C-112.60324637 101.12146066 -112.98592803 104.95129775 -113.5625 109.25 C-113.96415401 112.19699282 -114.43473766 115.07602518 -115 118 C-115.99 118.495 -115.99 118.495 -117 119 C-117.33 119.99 -117.66 120.98 -118 122 C-119.9375 124.1875 -119.9375 124.1875 -122 126 C-122.66 126 -123.32 126 -124 126 C-124.12117188 126.77085937 -124.24234375 127.54171875 -124.3671875 128.3359375 C-124.61855469 129.84027344 -124.61855469 129.84027344 -124.875 131.375 C-125.11863281 132.87160156 -125.11863281 132.87160156 -125.3671875 134.3984375 C-126 137 -126 137 -128 139 C-128.73972396 140.83395713 -129.42107941 142.69189317 -130.0625 144.5625 C-131.90277778 149.90277778 -131.90277778 149.90277778 -133 151 C-134.67430103 160.49818657 -134.15234738 170.46355654 -134.13037109 180.07226562 C-134.12497245 182.88937665 -134.1303629 185.70633107 -134.13671875 188.5234375 C-134.13605858 190.32552118 -134.13477869 192.12760477 -134.1328125 193.9296875 C-134.13483673 194.76619843 -134.13686096 195.60270935 -134.13894653 196.46456909 C-134.12291194 200.45759142 -133.92578264 204.09391464 -133 208 C-132.93540958 209.76977761 -132.91388935 211.54170152 -132.9375 213.3125 C-132.94652344 214.19550781 -132.95554687 215.07851563 -132.96484375 215.98828125 C-132.97644531 216.65214844 -132.98804688 217.31601562 -133 218 C-133.99 217.67 -134.98 217.34 -136 217 C-137.04321289 214.58251953 -137.04321289 214.58251953 -137.97265625 211.3828125 C-138.48602539 209.63484375 -138.48602539 209.63484375 -139.00976562 207.8515625 C-139.35716797 206.62179687 -139.70457031 205.39203125 -140.0625 204.125 C-140.41376953 202.93390625 -140.76503906 201.7428125 -141.12695312 200.515625 C-149.68496714 170.94275238 -149.67191521 142.23352695 -134.6875 114.875 C-120.79519017 90.04772323 -102.30348152 68.64262577 -80 51 C-78.60719034 49.85551811 -77.21673606 48.70816623 -75.828125 47.55859375 C-75.10278564 46.96046875 -74.37744629 46.36234375 -73.63012695 45.74609375 C-72.18613562 44.55501394 -70.74450012 43.36107138 -69.30541992 42.1640625 C-68.64646729 41.62394531 -67.98751465 41.08382812 -67.30859375 40.52734375 C-66.71876709 40.03999756 -66.12894043 39.55265137 -65.52124023 39.05053711 C-64 38 -64 38 -62 38 C-62 38.66 -62 39.32 -62 40 C-54.20021176 37.28376314 -54.20021176 37.28376314 -48 32 C-47.34 32 -46.68 32 -46 32 C-45.505 30.515 -45.505 30.515 -45 29 C-44.34 29 -43.68 29 -43 29 C-41.9785409 26.53000624 -41.02994802 24.10270218 -40.28125 21.53515625 C-38.62084858 16.27998577 -37.00737521 13.51067425 -32.1875 10.6875 C-30.45849531 9.79135408 -28.72933816 8.89550224 -27 8 C-25.77347404 7.12924121 -24.56277646 6.23541596 -23.375 5.3125 C-15.90073325 -0.06342272 -9.06312868 -0.40784079 0 0 Z " fill="#838383" transform="translate(221,92)"/>
<path d="M0 0 C1.02230713 -0.00064453 2.04461426 -0.00128906 3.09790039 -0.00195312 C10.21582225 0.04785818 16.93227669 0.51527417 23.875 2.1875 C23.875 2.8475 23.875 3.5075 23.875 4.1875 C26.845 4.1875 29.815 4.1875 32.875 4.1875 C28.30837126 8.75412874 21.95102694 10.74593041 15.53125 11.44140625 C13.625 11.4375 13.625 11.4375 10.875 11.1875 C10.875 9.8675 10.875 8.5475 10.875 7.1875 C8.565 6.5275 6.255 5.8675 3.875 5.1875 C3.545 5.8475 3.215 6.5075 2.875 7.1875 C2.875 6.5275 2.875 5.8675 2.875 5.1875 C1.885 5.5175 0.895 5.8475 -0.125 6.1875 C-0.785 5.8575 -1.445 5.5275 -2.125 5.1875 C-12.71808213 4.16506644 -20.57134215 6.17234622 -28.875 12.8125 C-29.60074219 13.41449219 -30.32648438 14.01648438 -31.07421875 14.63671875 C-33.59724493 16.54460712 -36.05343796 17.47867799 -39.125 18.1875 C-39.24746094 18.91195312 -39.36992187 19.63640625 -39.49609375 20.3828125 C-41.7533853 30.44949156 -47.63810374 36.26828838 -55.75 42.0625 C-58.53024446 43.3794579 -61.08067838 43.83350911 -64.125 44.1875 C-63.54294855 41.05389744 -62.69184546 39.41647479 -60.5 37.125 C-57.89443684 34.23608954 -55.9185737 31.28384376 -53.9375 27.9375 C-45.15251806 13.86991878 -32.97542226 5.40994855 -17.125 1.1875 C-11.44964628 -0.07738822 -5.78649703 -0.00373533 0 0 Z " fill="#818181" transform="translate(223.125,87.8125)"/>
<path d="M0 0 C-1.24926347 4.58063273 -2.7009571 6.7009571 -6 10 C-9.51322685 14.83222781 -10.21100068 19.14205937 -10.4375 25.0625 C-10.66894306 30.50141188 -11.22856079 33.31241121 -14.80078125 37.35546875 C-16.70293769 39.96396341 -16.9776328 42.79834021 -17.53515625 45.92578125 C-18.14798575 48.66033976 -19.47186335 50.67457467 -21 53 C-21.69579454 55.19130534 -21.69579454 55.19130534 -22 57 C-22.66 57 -23.32 57 -24 57 C-24.2475 57.763125 -24.495 58.52625 -24.75 59.3125 C-26 62 -26 62 -28 63.125 C-31.15356369 66.08146596 -30.92223671 69.52558905 -31.25 73.6875 C-31.32734375 74.48478516 -31.4046875 75.28207031 -31.484375 76.10351562 C-31.67254285 78.06751757 -31.83843884 80.03363056 -32 82 C-32.33 82 -32.66 82 -33 82 C-37.87613244 56.44906603 -28.42797253 33.04540502 -14.67260742 11.96582031 C-12.48653584 8.81641625 -10.289329 6.04660022 -7.3125 3.625 C-6.73113281 3.14289063 -6.14976563 2.66078125 -5.55078125 2.1640625 C-3.60044977 0.70008572 -2.46789141 0 0 0 Z " fill="#A7A7A7" transform="translate(108,183)"/>
<path d="M0 0 C1.2942471 2.58849421 0.81710662 3.70980086 0.1875 6.5 C0.01605469 7.2940625 -0.15539062 8.088125 -0.33203125 8.90625 C-1 11 -1 11 -3 13 C-3.73972396 14.83395713 -4.42107941 16.69189317 -5.0625 18.5625 C-6.90277778 23.90277778 -6.90277778 23.90277778 -8 25 C-9.67430103 34.49818657 -9.15234738 44.46355654 -9.13037109 54.07226562 C-9.12497245 56.88937665 -9.1303629 59.70633107 -9.13671875 62.5234375 C-9.13605858 64.32552118 -9.13477869 66.12760477 -9.1328125 67.9296875 C-9.13483673 68.76619843 -9.13686096 69.60270935 -9.13894653 70.46456909 C-9.12291194 74.45759142 -8.92578264 78.09391464 -8 82 C-7.93540958 83.76977761 -7.91388935 85.54170152 -7.9375 87.3125 C-7.94652344 88.19550781 -7.95554687 89.07851563 -7.96484375 89.98828125 C-7.97644531 90.65214844 -7.98804687 91.31601562 -8 92 C-8.99 91.67 -9.98 91.34 -11 91 C-12.04321289 88.58251953 -12.04321289 88.58251953 -12.97265625 85.3828125 C-13.31490234 84.2175 -13.65714844 83.0521875 -14.00976562 81.8515625 C-14.35716797 80.62179687 -14.70457031 79.39203125 -15.0625 78.125 C-15.41376953 76.93390625 -15.76503906 75.7428125 -16.12695312 74.515625 C-19.8556734 61.63074663 -21.30432484 51.31310873 -20 38 C-19.96003906 37.1440625 -19.92007813 36.288125 -19.87890625 35.40625 C-19.6521518 31.72320794 -19.325376 30.30034708 -16.5625 27.75 C-15.716875 27.1725 -14.87125 26.595 -14 26 C-12.68834743 23.88339573 -12.68834743 23.88339573 -12 22 C-11.34 22 -10.68 22 -10 22 C-9.9175 21.175 -9.835 20.35 -9.75 19.5 C-8.83183312 15.21522121 -7.05626345 11.83318545 -5 8 C-4.32962449 6.66852754 -3.66191328 5.33569945 -3 4 C-2.34 4 -1.68 4 -1 4 C-0.67 2.68 -0.34 1.36 0 0 Z " fill="#4E4E4E" transform="translate(96,218)"/>
<path d="M0 0 C6.53118913 0.9727303 9.55799605 4.13938037 13.984375 8.90625 C16.0137345 11.16423157 16.0137345 11.16423157 19 13 C19 13.66 19 14.32 19 15 C19.66 15 20.32 15 21 15 C21 15.66 21 16.32 21 17 C21.59296875 17.2578125 22.1859375 17.515625 22.796875 17.78125 C26.72119315 19.9521494 29.17496047 23.58233506 32 27 C32.64324219 27.74507812 33.28648437 28.49015625 33.94921875 29.2578125 C48.42890333 46.49688687 52.81830679 62.80814921 52 85 C50.02 85.99 50.02 85.99 48 87 C47.06537146 84.19611438 46.75693126 82.02926148 46.53515625 79.10546875 C46.45716797 78.14962891 46.37917969 77.19378906 46.29882812 76.20898438 C46.14221064 74.20661042 45.98852879 72.20400453 45.83789062 70.20117188 C45.42326271 65.18181438 44.91420287 60.71742883 43 56 C42.34 56 41.68 56 41 56 C41 54.35 41 52.7 41 51 C40.01 50.67 39.02 50.34 38 50 C37.0859375 48.22265625 37.0859375 48.22265625 36.375 46.0625 C35.66251244 43.95185136 34.99716245 41.9943249 34 40 C33.01 40.495 33.01 40.495 32 41 C32 39.68 32 38.36 32 37 C31.34 37 30.68 37 30 37 C29.67 35.68 29.34 34.36 29 33 C28.34 33 27.68 33 27 33 C26.67 32.01 26.34 31.02 26 30 C25.175 29.360625 24.35 28.72125 23.5 28.0625 C20.94441182 25.95413975 20.34294784 25.2008465 20 22 C19.01 22 18.02 22 17 22 C16.77570313 21.27167969 16.55140625 20.54335937 16.3203125 19.79296875 C14.71024895 16.3870651 12.75000936 14.72472295 9.875 12.3125 C8.21602064 10.91435167 6.58150706 9.48521604 5 8 C5 7.34 5 6.68 5 6 C4.34 6 3.68 6 3 6 C2.01 4.02 1.02 2.04 0 0 Z " fill="#989898" transform="translate(388,157)"/>
<path d="M0 0 C5.35066738 1.24623139 9.22294815 3.17861918 13.625 6.5 C14.22546143 6.94142334 14.82592285 7.38284668 15.44458008 7.83764648 C17.30590645 9.21285828 19.1543632 10.60382134 21 12 C21.85682373 12.64412842 21.85682373 12.64412842 22.73095703 13.30126953 C33.1583629 21.15745116 43.22681387 29.42674592 53.125 37.9375 C53.78935059 38.50573486 54.45370117 39.07396973 55.13818359 39.65942383 C55.75516113 40.1933374 56.37213867 40.72725098 57.0078125 41.27734375 C57.56098145 41.75421631 58.11415039 42.23108887 58.68408203 42.72241211 C60 44 60 44 61 46 C60.01 46 59.02 46 58 46 C58.66 46.66 59.32 47.32 60 48 C60 48.99 60 49.98 60 51 C60.66 51 61.32 51 62 51 C63.72742143 52.62871163 65.36161196 54.28521045 67 56 C68.26819949 57.27346173 69.53909153 58.54424703 70.8125 59.8125 C71.875 60.875 72.9375 61.9375 74 63 C73.67 63.99 73.34 64.98 73 66 C72.67 65.01 72.34 64.02 72 63 C71.01 63 70.02 63 69 63 C69 62.01 69 61.02 69 60 C67.515 59.505 67.515 59.505 66 59 C66 58.34 66 57.68 66 57 C65.360625 56.731875 64.72125 56.46375 64.0625 56.1875 C62 55 62 55 61 52 C60.34 52 59.68 52 59 52 C57.66666667 50.66666667 56.33333333 49.33333333 55 48 C52.99454704 46.44830609 50.95653639 44.95127489 48.90234375 43.46484375 C47.09550625 42.07354177 45.49691462 40.72075232 44 39 C44 38.34 44 37.68 44 37 C43.01 37.33 42.02 37.66 41 38 C37.91206745 35.9413783 37.52161393 35.1446688 36 32 C35.34 31.67 34.68 31.34 34 31 C34 30.34 34 29.68 34 29 C33.319375 28.7525 32.63875 28.505 31.9375 28.25 C22.12865497 24.07602339 22.12865497 24.07602339 20 19 C18.67607028 17.98758315 17.34400833 16.98560611 16 16 C16 15.34 16 14.68 16 14 C14.68 13.34 13.36 12.68 12 12 C12 11.34 12 10.68 12 10 C11.13375 9.979375 10.2675 9.95875 9.375 9.9375 C4.77241181 8.65900328 2.56943843 5.94527248 0 2 C0 1.34 0 0.68 0 0 Z " fill="#767676" transform="translate(331,112)"/>
<path d="M0 0 C-0.144375 0.969375 -0.28875 1.93875 -0.4375 2.9375 C-1.06047442 7.28052169 -1.53507859 11.63765234 -2 16 C-2.66 16 -3.32 16 -4 16 C-3.70416016 16.87398437 -3.70416016 16.87398437 -3.40234375 17.765625 C-2.57500448 22.3601693 -5.94459797 26.43419862 -8.4296875 30.12109375 C-11.31649178 34.07736179 -14.29040305 37.79169994 -18 41 C-18.99 41 -19.98 41 -21 41 C-21.44822439 34.93296272 -20.0564822 30.83788548 -17.5 25.375 C-17.14268799 24.5924585 -16.78537598 23.80991699 -16.41723633 23.00366211 C-5.67310939 0 -5.67310939 0 0 0 Z " fill="#C6C6C6" transform="translate(98,193)"/>
<path d="M0 0 C0.99 0.33 1.98 0.66 3 1 C1.68 1.33 0.36 1.66 -1 2 C-1 2.99 -1 3.98 -1 5 C-1.639375 5.268125 -2.27875 5.53625 -2.9375 5.8125 C-5.33131686 6.88667752 -5.33131686 6.88667752 -6 10 C-6.825 10.28875 -7.65 10.5775 -8.5 10.875 C-9.325 11.24625 -10.15 11.6175 -11 12 C-11.38531376 13.65542206 -11.7104927 15.32516436 -12 17 C-15.37673975 26.01430098 -21.20647379 32.83464548 -30 37 C-33.3125 37.6875 -33.3125 37.6875 -36 38 C-35.41794855 34.86639744 -34.56684546 33.22897479 -32.375 30.9375 C-29.76943684 28.04858954 -27.7935737 25.09634376 -25.8125 21.75 C-19.9693288 12.39834632 -12.65799498 4.51362472 -2 1 C-1.34 0.67 -0.68 0.34 0 0 Z " fill="#A9A9A9" transform="translate(195,94)"/>
<path d="M0 0 C0.66 0 1.32 0 2 0 C2.495 0.99 2.495 0.99 3 2 C3.66 2 4.32 2 5 2 C0.99342932 23.85402191 -14.37137474 48.37137474 -30 64 C-30.99 64 -31.98 64 -33 64 C-31.26860378 57.4389196 -28.80603796 51.9131363 -24 47 C-23.34 47 -22.68 47 -22 47 C-21.731875 46.29875 -21.46375 45.5975 -21.1875 44.875 C-17.65753425 36.32876712 -17.65753425 36.32876712 -13 34 C-11.23272142 30.9665533 -11.23272142 30.9665533 -10 28 C-9.34 28 -8.68 28 -8 28 C-7.87625 26.88625 -7.7525 25.7725 -7.625 24.625 C-7 21 -7 21 -5 19 C-4.60235737 17.01178687 -4.26224651 15.01055661 -4 13 C-3.34 13 -2.68 13 -2 13 C-1.90912109 11.84371094 -1.90912109 11.84371094 -1.81640625 10.6640625 C-1.73261719 9.66117188 -1.64882813 8.65828125 -1.5625 7.625 C-1.48128906 6.62726563 -1.40007812 5.62953125 -1.31640625 4.6015625 C-1 2 -1 2 0 0 Z " fill="#525252" transform="translate(434,241)"/>
<path d="M0 0 C0.495 0.99 0.495 0.99 1 2 C-0.5778125 2.2165625 -0.5778125 2.2165625 -2.1875 2.4375 C-5.1580783 2.87578204 -8.06146773 3.39722415 -11 4 C-12.03125 4.12375 -13.0625 4.2475 -14.125 4.375 C-17.28720959 5.06243687 -17.89080508 5.70739683 -20 8 C-20.78375 8.268125 -21.5675 8.53625 -22.375 8.8125 C-25.93720902 10.42397551 -27.55870675 12.99533139 -30 16 C-30.7425 16.350625 -31.485 16.70125 -32.25 17.0625 C-33.11625 17.5265625 -33.11625 17.5265625 -34 18 C-34.12761719 18.72058594 -34.25523437 19.44117187 -34.38671875 20.18359375 C-35.85145878 26.91020243 -41.02640065 34.16026878 -46.75 38 C-51.02299474 40.28062616 -55.64459278 41.69880739 -60.265625 43.10546875 C-62.666668 43.89095282 -64.78290851 44.80171484 -67 46 C-66.34 45.01 -65.68 44.02 -65 43 C-66.98 43.66 -68.96 44.32 -71 45 C-68.19195732 42.03595495 -65.81684226 39.55500981 -62 38 C-62 38.66 -62 39.32 -62 40 C-54.20021176 37.28376314 -54.20021176 37.28376314 -48 32 C-47.34 32 -46.68 32 -46 32 C-45.67 31.01 -45.34 30.02 -45 29 C-44.34 29 -43.68 29 -43 29 C-41.9785409 26.53000624 -41.02994802 24.10270218 -40.28125 21.53515625 C-38.62084858 16.27998577 -37.00737521 13.51067425 -32.1875 10.6875 C-30.45849531 9.79135408 -28.72933816 8.89550224 -27 8 C-25.77347404 7.12924121 -24.56277646 6.23541596 -23.375 5.3125 C-15.90073325 -0.06342272 -9.06312868 -0.40784079 0 0 Z " fill="#535353" transform="translate(221,92)"/>
<path d="M0 0 C1.60572876 -0.00676758 1.60572876 -0.00676758 3.24389648 -0.01367188 C8.18731652 -0.00428043 12.89392486 0.07005954 17.75 1.125 C16.76 1.785 15.77 2.445 14.75 3.125 C15.74 3.62 15.74 3.62 16.75 4.125 C16.75 4.785 16.75 5.445 16.75 6.125 C15.76386719 5.9084375 15.76386719 5.9084375 14.7578125 5.6875 C3.56685976 3.50389947 -9.64202632 1.92255752 -20.4140625 6.45703125 C-23.40398156 7.54485286 -26.10351815 7.32583927 -29.25 7.125 C-29.25 7.785 -29.25 8.445 -29.25 9.125 C-31.25 10.125 -33.25 11.125 -35.25 12.125 C-36.7040625 13.0221875 -36.7040625 13.0221875 -38.1875 13.9375 C-42.19813648 15.49264476 -44.31321063 14.62097996 -48.25 13.125 C-48.875 10.8125 -48.875 10.8125 -49.25 8.125 C-48.59 7.135 -47.93 6.145 -47.25 5.125 C-46.92 4.465 -46.59 3.805 -46.25 3.125 C-45.26 3.785 -44.27 4.445 -43.25 5.125 C-43.58 6.445 -43.91 7.765 -44.25 9.125 C-33.46962908 7.00164159 -33.46962908 7.00164159 -23.25 3.125 C-25.89 2.795 -28.53 2.465 -31.25 2.125 C-31.25 1.795 -31.25 1.465 -31.25 1.125 C-20.83092239 0.3798297 -10.44689287 0.01835069 0 0 Z " fill="#666666" transform="translate(278.25,89.875)"/>
<path d="M0 0 C0.99 0.33 1.98 0.66 3 1 C2.278125 1.556875 1.55625 2.11375 0.8125 2.6875 C-2.9746259 5.80135908 -6.30316488 9.27075395 -9.6875 12.8125 C-12 15 -12 15 -14 15 C-14 15.66 -14 16.32 -14 17 C-15.32 17.33 -16.64 17.66 -18 18 C-18.08507812 18.58523437 -18.17015625 19.17046875 -18.2578125 19.7734375 C-19.21027055 22.63081166 -20.57316476 23.71101978 -22.875 25.625 C-23.57367188 26.21539062 -24.27234375 26.80578125 -24.9921875 27.4140625 C-29.5320197 31 -29.5320197 31 -32 31 C-33.94195261 33.07229525 -33.94195261 33.07229525 -35.9375 35.6875 C-36.62714844 36.55761719 -37.31679687 37.42773438 -38.02734375 38.32421875 C-40.03716648 40.94590869 -40.03716648 40.94590869 -41.5859375 43.75 C-43.34580761 46.55023531 -44.88778757 47.07474765 -48 48 C-47.42655063 45.13275314 -47.1385485 44.1385485 -45 42 C-44.7105249 41.22301758 -44.4210498 40.44603516 -44.12280273 39.64550781 C-42.8423915 36.62864847 -41.35106445 34.97813466 -39.03515625 32.671875 C-37.8426123 31.47824341 -37.8426123 31.47824341 -36.62597656 30.26049805 C-35.35705566 29.01780151 -35.35705566 29.01780151 -34.0625 27.75 C-33.20237305 26.89897705 -32.34224609 26.0479541 -31.45605469 25.17114258 C-25.55805332 19.38810225 -19.52712268 14.06138285 -13 9 C-11.70210127 7.86123062 -10.40977074 6.71606012 -9.125 5.5625 C-6.58011148 3.34795759 -4.24281481 2.04914597 -1 1 C-0.67 0.67 -0.34 0.34 0 0 Z " fill="#979797" transform="translate(154,134)"/>
<path d="M0 0 C5.35066738 1.24623139 9.22294815 3.17861918 13.625 6.5 C14.22546143 6.94142334 14.82592285 7.38284668 15.44458008 7.83764648 C17.30590645 9.21285828 19.1543632 10.60382134 21 12 C21.85682373 12.64412842 21.85682373 12.64412842 22.73095703 13.30126953 C26.52213303 16.1576048 30.26674577 19.06839337 34 22 C34.53383301 22.4120166 35.06766602 22.8240332 35.61767578 23.24853516 C37.16960338 24.44730126 38.71003174 25.6609089 40.25 26.875 C41.14203125 27.57367188 42.0340625 28.27234375 42.953125 28.9921875 C45.12124546 31.11893162 45.47215074 32.10614406 46 35 C47.9837767 36.28436734 47.9837767 36.28436734 50 37 C49.01 37.495 49.01 37.495 48 38 C47.12859375 37.31035156 46.2571875 36.62070313 45.359375 35.91015625 C38.42043122 30.43168186 31.43738022 25.03325035 24.328125 19.77734375 C22 18 22 18 20 16 C18.824375 15.525625 17.64875 15.05125 16.4375 14.5625 C15.303125 14.046875 14.16875 13.53125 13 13 C12.67 12.01 12.34 11.02 12 10 C11.13375 9.979375 10.2675 9.95875 9.375 9.9375 C4.77241181 8.65900328 2.56943843 5.94527248 0 2 C0 1.34 0 0.68 0 0 Z " fill="#848484" transform="translate(331,112)"/>
<path d="M0 0 C0.33 0 0.66 0 1 0 C0.99777939 0.57771652 0.99555878 1.15543304 0.99327087 1.75065613 C0.97112982 7.76906719 0.95605653 13.78746666 0.94506836 19.8059082 C0.94004281 22.05135569 0.93322135 24.29679992 0.92456055 26.54223633 C0.91241719 29.77165534 0.90675386 33.00103105 0.90234375 36.23046875 C0.89718246 37.23272995 0.89202118 38.23499115 0.88670349 39.2676239 C0.88659019 40.67852043 0.88659019 40.67852043 0.88647461 42.11791992 C0.884254 42.94176682 0.88203339 43.76561371 0.87974548 44.61442566 C1.00802754 47.15924803 1.47399896 49.51012022 2 52 C2.06459042 53.76977761 2.08611065 55.54170152 2.0625 57.3125 C2.05347656 58.19550781 2.04445313 59.07851563 2.03515625 59.98828125 C2.02355469 60.65214844 2.01195313 61.31601562 2 62 C1.01 61.67 0.02 61.34 -1 61 C-2.07820986 58.37852822 -2.95012582 55.89239998 -3.75 53.1875 C-3.98332031 52.46240234 -4.21664062 51.73730469 -4.45703125 50.99023438 C-5.60293605 47.24031237 -6.18061705 44.73741029 -5 41 C-4.01 41.33 -3.02 41.66 -2 42 C-1.97065289 38.50001799 -1.95308555 35.00006821 -1.9375 31.5 C-1.92912109 30.51773437 -1.92074219 29.53546875 -1.91210938 28.5234375 C-1.89728383 24.07577301 -1.95314985 19.75368364 -2.56640625 15.34375 C-2.70949219 14.2403125 -2.85257812 13.136875 -3 12 C-2.67 11.67 -2.34 11.34 -2 11 C-1.60545777 9.15400312 -1.25823134 7.29774178 -0.9375 5.4375 C-0.76089844 4.42558594 -0.58429688 3.41367188 -0.40234375 2.37109375 C-0.20318359 1.19740234 -0.20318359 1.19740234 0 0 Z " fill="#3A3A3A" transform="translate(86,248)"/>
<path d="M0 0 C6.53118913 0.9727303 9.55799605 4.13938037 13.984375 8.90625 C16.0137345 11.16423157 16.0137345 11.16423157 19 13 C19 13.66 19 14.32 19 15 C19.66 15 20.32 15 21 15 C21 15.66 21 16.32 21 17 C22.32 17.66 23.64 18.32 25 19 C24.67 19.66 24.34 20.32 24 21 C23.34 20.67 22.68 20.34 22 20 C22.8971875 20.99 22.8971875 20.99 23.8125 22 C26.42425831 25.58183997 27.58094144 28.81377726 29 33 C28.34 33 27.68 33 27 33 C26.67 32.01 26.34 31.02 26 30 C25.175 29.360625 24.35 28.72125 23.5 28.0625 C20.94441182 25.95413975 20.34294784 25.2008465 20 22 C19.01 22 18.02 22 17 22 C16.77570313 21.27167969 16.55140625 20.54335937 16.3203125 19.79296875 C14.71024895 16.3870651 12.75000936 14.72472295 9.875 12.3125 C8.21602064 10.91435167 6.58150706 9.48521604 5 8 C5 7.34 5 6.68 5 6 C4.34 6 3.68 6 3 6 C2.01 4.02 1.02 2.04 0 0 Z " fill="#969696" transform="translate(388,157)"/>
<path d="M0 0 C0.33 0.66 0.66 1.32 1 2 C0.2578125 3.8046875 0.2578125 3.8046875 -0.875 5.875 C-2.3439991 8.57672562 -3.3645044 10.98477618 -4 14 C-4.66 14 -5.32 14 -6 14 C-6.2475 14.763125 -6.495 15.52625 -6.75 16.3125 C-8 19 -8 19 -10 20.125 C-13.15356369 23.08146596 -12.92223671 26.52558905 -13.25 30.6875 C-13.32734375 31.48478516 -13.4046875 32.28207031 -13.484375 33.10351562 C-13.67254285 35.06751757 -13.83843884 37.03363056 -14 39 C-14.33 39 -14.66 39 -15 39 C-16.96333046 28.84054395 -16.34637072 18.21799211 -15 8 C-14.34 9.32 -13.68 10.64 -13 12 C-12.67 11.34 -12.34 10.68 -12 10 C-11.29875 9.79375 -10.5975 9.5875 -9.875 9.375 C-5.52347316 7.29383499 -2.9909167 3.70632328 0 0 Z " fill="#7C7C7C" transform="translate(90,226)"/>
<path d="M0 0 C-1.54783764 5.38225362 -2.93654391 9.93654391 -7 14 C-7.66 14 -8.32 14 -9 14 C-9.185625 14.5775 -9.37125 15.155 -9.5625 15.75 C-11.73128715 19.14462336 -14.40994626 20.20497313 -18 22 C-18.66 22 -19.32 22 -20 22 C-19.41497674 18.82710917 -18.51243031 17.1510086 -16.3125 14.8125 C-13.25103965 11.41251279 -10.81577208 7.7932881 -8.39453125 3.91796875 C-5.8536498 0.4233671 -4.30342852 0 0 0 Z " fill="#9F9F9F" transform="translate(179,110)"/>
<path d="M0 0 C1.32 0 2.64 0 4 0 C4 0.66 4 1.32 4 2 C4.66 2 5.32 2 6 2 C6 2.66 6 3.32 6 4 C6.61488281 4.06058594 7.22976563 4.12117188 7.86328125 4.18359375 C9.07564453 4.30927734 9.07564453 4.30927734 10.3125 4.4375 C11.11300781 4.51871094 11.91351563 4.59992188 12.73828125 4.68359375 C15 5 15 5 18 6 C16.02 4.68 14.04 3.36 12 2 C12.33 1.34 12.66 0.68 13 0 C16.96 2.64 20.92 5.28 25 8 C24.01 8.495 24.01 8.495 23 9 C22.34 8.67 21.68 8.34 21 8 C22.1678266 11.81413002 22.1678266 11.81413002 25.125 14.3125 C25.74375 14.539375 26.3625 14.76625 27 15 C27 15.66 27 16.32 27 17 C27.94875 17.103125 28.8975 17.20625 29.875 17.3125 C33 18 33 18 35 21 C35 21.99 35 22.98 35 24 C34.34 24 33.68 24 33 24 C33 23.34 33 22.68 33 22 C32.34 22 31.68 22 31 22 C31 21.34 31 20.68 31 20 C30.030625 19.7525 29.06125 19.505 28.0625 19.25 C27.051875 18.8375 26.04125 18.425 25 18 C24.125 15.875 24.125 15.875 24 14 C22.35 14 20.7 14 19 14 C18.67 13.01 18.34 12.02 18 11 C17.01 10.67 16.02 10.34 15 10 C15 9.34 15 8.68 15 8 C14.01 8.33 13.02 8.66 12 9 C9.48301368 7.92745123 7.33194455 6.45196548 5 5 C5 4.34 5 3.68 5 3 C2.525 2.01 2.525 2.01 0 1 C0 0.67 0 0.34 0 0 Z " fill="#595959" transform="translate(310,104)"/>
<path d="M0 0 C0.99 0.33 1.98 0.66 3 1 C2.278125 1.556875 1.55625 2.11375 0.8125 2.6875 C-2.9746259 5.80135908 -6.30316488 9.27075395 -9.6875 12.8125 C-12 15 -12 15 -14 15 C-14 15.66 -14 16.32 -14 17 C-15.32 17.33 -16.64 17.66 -18 18 C-18.08507812 18.58523437 -18.17015625 19.17046875 -18.2578125 19.7734375 C-19.21027055 22.63081166 -20.57316476 23.71101978 -22.875 25.625 C-23.57367188 26.21539062 -24.27234375 26.80578125 -24.9921875 27.4140625 C-27 29 -27 29 -30 31 C-28.43873668 27.16780823 -25.97133075 24.82638778 -23 22 C-22.401875 21.401875 -21.80375 20.80375 -21.1875 20.1875 C-20.795625 19.795625 -20.40375 19.40375 -20 19 C-20.66 18.34 -21.32 17.68 -22 17 C-18.67831717 13.98685293 -15.34415805 10.9881832 -12 8 C-11.39800781 7.45859375 -10.79601562 6.9171875 -10.17578125 6.359375 C-7.2749076 3.83157959 -4.63651351 2.24680463 -1 1 C-0.67 0.67 -0.34 0.34 0 0 Z " fill="#878787" transform="translate(154,134)"/>
<path d="M0 0 C0.66 0 1.32 0 2 0 C1.0270816 4.15701498 -0.09516645 7.2425579 -2.4375 10.8125 C-5.61110139 16.16095175 -6.21465421 21.89789139 -7.01147461 27.96801758 C-7.28445434 29.98712995 -7.63570945 31.99534913 -8 34 C-8.99 34.495 -8.99 34.495 -10 35 C-10.33 35.99 -10.66 36.98 -11 38 C-12.9375 40.1875 -12.9375 40.1875 -15 42 C-15.66 42 -16.32 42 -17 42 C-15.35488308 36.43191197 -15.35488308 36.43191197 -13.48828125 34.16015625 C-11.63598405 31.4716514 -11.39751784 29.41319161 -11 26.1875 C-9.38095065 15.21543002 -9.38095065 15.21543002 -5.5390625 11.640625 C-3.57505697 9.54701504 -2.82091453 7.49001445 -1.8125 4.8125 C-1.29623047 3.46091797 -1.29623047 3.46091797 -0.76953125 2.08203125 C-0.38861328 1.05142578 -0.38861328 1.05142578 0 0 Z " fill="#505050" transform="translate(114,176)"/>
<path d="M0 0 C0.66 0.33 1.32 0.66 2 1 C-2.43232023 5.31252779 -6.50781966 7.11512166 -12.4140625 8.91015625 C-15.36503256 10.15384303 -16.82226377 11.68476922 -19 14 C-20.3254648 14.89805964 -21.67983488 15.75527932 -23.0625 16.5625 C-25.16709485 17.79455649 -26.86716481 18.86453441 -28.578125 20.609375 C-30.53010334 22.51845272 -32.35000198 22.64189216 -35 23 C-35.33 23.99 -35.66 24.98 -36 26 C-38.0625 26.6875 -38.0625 26.6875 -40 27 C-40 26.34 -40 25.68 -40 25 C-38.68 24.67 -37.36 24.34 -36 24 C-36 23.34 -36 22.68 -36 22 C-34.53859564 20.77109179 -33.07235996 19.5471271 -31.57421875 18.36328125 C-29.79506113 16.92327726 -29.79506113 16.92327726 -28.0625 14.375 C-25.44732888 11.36359083 -22.62773278 10.36306202 -19 9 C-17.45442736 8.3213266 -15.91284881 7.63349813 -14.375 6.9375 C-12.01215377 5.88022643 -9.66549224 4.87075837 -7.25 3.9375 C-4.85583743 3.01260929 -4.85583743 3.01260929 -2.3125 1.3125 C-1.549375 0.879375 -0.78625 0.44625 0 0 Z " fill="#383838" transform="translate(176,127)"/>
<path d="M0 0 C8.45934607 2.30709438 13.58144785 10.8378426 18.59375 17.44921875 C20 20 20 20 19.71875 22.33203125 C19.4815625 22.88246094 19.244375 23.43289062 19 24 C15.69713914 22.89904638 15.21489099 22.3103981 13.3125 19.5625 C12.87550781 18.94503906 12.43851562 18.32757813 11.98828125 17.69140625 C11 16 11 16 11 14 C9.68 14 8.36 14 7 14 C4.66666667 9.33333333 2.33333333 4.66666667 0 0 Z " fill="#AEAEAE" transform="translate(410,177)"/>
<path d="M0 0 C3.89271432 2.167295 7.03709814 4.67413029 10.3125 7.6875 C11.19550781 8.49574219 12.07851563 9.30398437 12.98828125 10.13671875 C13.65214844 10.75160156 14.31601562 11.36648437 15 12 C14.01 12.33 13.02 12.66 12 13 C12.66 13.66 13.32 14.32 14 15 C14 15.99 14 16.98 14 18 C14.66 18 15.32 18 16 18 C17.72742143 19.62871163 19.36161196 21.28521045 21 23 C22.26819949 24.27346173 23.53909153 25.54424703 24.8125 26.8125 C25.875 27.875 26.9375 28.9375 28 30 C27.67 30.99 27.34 31.98 27 33 C26.67 32.01 26.34 31.02 26 30 C25.01 30 24.02 30 23 30 C23 29.01 23 28.02 23 27 C22.01 26.67 21.02 26.34 20 26 C20 25.34 20 24.68 20 24 C19.360625 23.731875 18.72125 23.46375 18.0625 23.1875 C16 22 16 22 15 19 C14.34 19 13.68 19 13 19 C11.66796875 17.64453125 11.66796875 17.64453125 10.1875 15.8125 C8.27488346 13.49771959 6.38099092 11.38099092 4.25 9.25 C2 7 2 7 0 4 C0.99 4 1.98 4 3 4 C2.01 3.34 1.02 2.68 0 2 C0 1.34 0 0.68 0 0 Z " fill="#828282" transform="translate(377,145)"/>
<path d="M0 0 C0.66 0.33 1.32 0.66 2 1 C1.401875 1.66 0.80375 2.32 0.1875 3 C-2.42425831 6.58183997 -3.58094144 9.81377726 -5 14 C-4.34 14 -3.68 14 -3 14 C-4.52276096 17.57766956 -6.64379935 19.94268871 -9.375 22.6875 C-10.14585937 23.47511719 -10.91671875 24.26273437 -11.7109375 25.07421875 C-13.93341696 26.94398389 -15.16821565 27.6185496 -18 28 C-17.1863254 22.71111511 -13.69667342 18.76560693 -10.3125 14.8125 C-7.85717435 12.1686089 -7.85717435 12.1686089 -7 9 C-6.34 9 -5.68 9 -5 9 C-5 7.68 -5 6.36 -5 5 C-2.5 2.25 -2.5 2.25 0 0 Z " fill="#343434" transform="translate(406,291)"/>
<path d="M0 0 C3.96 0 7.92 0 12 0 C12 0.66 12 1.32 12 2 C14.97 2 17.94 2 21 2 C16.39083223 6.60916777 12.47055054 7.11684377 6.125 7.125 C4.41645625 7.09310718 2.70796558 7.05470352 1 7 C0.67 4.69 0.34 2.38 0 0 Z " fill="#A5A5A5" transform="translate(235,90)"/>
<path d="M0 0 C1.25941406 -0.00257812 2.51882812 -0.00515625 3.81640625 -0.0078125 C7.12038966 0.1133692 10.19646843 0.49577045 13.4375 1.125 C13.4375 1.455 13.4375 1.785 13.4375 2.125 C11.7875 2.455 10.1375 2.785 8.4375 3.125 C8.7675 4.775 9.0975 6.425 9.4375 8.125 C12.4075 8.62 12.4075 8.62 15.4375 9.125 C13.4375 11.125 13.4375 11.125 9.8125 11.25 C8.69875 11.20875 7.585 11.1675 6.4375 11.125 C6.4375 9.805 6.4375 8.485 6.4375 7.125 C4.7875 6.465 3.1375 5.805 1.4375 5.125 C1.4375 4.465 1.4375 3.805 1.4375 3.125 C0.08205078 3.15980469 0.08205078 3.15980469 -1.30078125 3.1953125 C-2.48027344 3.21335937 -3.65976563 3.23140625 -4.875 3.25 C-6.63263672 3.28480469 -6.63263672 3.28480469 -8.42578125 3.3203125 C-11.5625 3.125 -11.5625 3.125 -14.5625 1.125 C-9.65744302 0.32753267 -4.98564521 -0.01022696 0 0 Z " fill="#9A9A9A" transform="translate(227.5625,87.875)"/>
<path d="M0 0 C0.5534764 2.07553648 1 3.84365964 1 6 C4.465 5.505 4.465 5.505 8 5 C6.18690951 10.28818061 3.67111564 13.88592291 -1 17 C-1.99 17 -2.98 17 -4 17 C-4.56131481 10.54487966 -2.63463787 5.84560277 0 0 Z " fill="#C7C7C7" transform="translate(81,217)"/>
<path d="M0 0 C-1.24926347 4.58063273 -2.7009571 6.7009571 -6 10 C-7.11856899 12.06286818 -8.10929548 14.15252176 -9.0703125 16.29296875 C-10 18 -10 18 -12 19 C-11.34 16.03 -10.68 13.06 -10 10 C-10.66 10 -11.32 10 -12 10 C-12.33 10.99 -12.66 11.98 -13 13 C-13.33 12.34 -13.66 11.68 -14 11 C-4.93349169 0 -4.93349169 0 0 0 Z " fill="#B3B3B3" transform="translate(108,183)"/>
<path d="M0 0 C1.31518695 3.94556086 0.36164115 5.06760201 -1.4375 8.75 C-5.2079815 16.00160046 -10.52478088 21.48224982 -18 25 C-18.66 24.67 -19.32 24.34 -20 24 C-19.13375 23.484375 -18.2675 22.96875 -17.375 22.4375 C-11.0276552 18.17592572 -7.9116751 12.96270132 -5 6 C-3.44626557 3.86243808 -1.77451595 1.96635552 0 0 Z " fill="#878787" transform="translate(183,106)"/>
<path d="M0 0 C0.33 0.66 0.66 1.32 1 2 C0.25 4.0625 0.25 4.0625 -1 6 C-1.99 6.33 -2.98 6.66 -4 7 C-4.6496875 8.36125 -4.6496875 8.36125 -5.3125 9.75 C-6.88134752 12.77148411 -7.5616562 13.63540383 -10.125 15.5625 C-13.18782775 17.71762065 -13.18782775 17.71762065 -13.875 20.8125 C-13.91625 21.534375 -13.9575 22.25625 -14 23 C-14.33 23 -14.66 23 -15 23 C-15 18.05 -15 13.1 -15 8 C-14.34 9.32 -13.68 10.64 -13 12 C-12.67 11.34 -12.34 10.68 -12 10 C-11.29875 9.79375 -10.5975 9.5875 -9.875 9.375 C-5.52347316 7.29383499 -2.9909167 3.70632328 0 0 Z " fill="#898989" transform="translate(90,226)"/>
<path d="M0 0 C1.231394 3.69418201 0.64432764 6.2056261 0 10 C-0.66 10 -1.32 10 -2 10 C-2.268125 10.969375 -2.53625 11.93875 -2.8125 12.9375 C-3.204375 13.948125 -3.59625 14.95875 -4 16 C-4.99 16.33 -5.98 16.66 -7 17 C-8.20882096 19.00016466 -8.20882096 19.00016466 -9 21 C-9.66 21 -10.32 21 -11 21 C-9.56781426 16.11857111 -7.49519668 12.0387872 -4.9375 7.6875 C-4.57333984 7.05521484 -4.20917969 6.42292969 -3.83398438 5.77148438 C-1.16003667 1.16003667 -1.16003667 1.16003667 0 0 Z " fill="#C1C1C1" transform="translate(93,196)"/>
<path d="M0 0 C0.83203125 1.65234375 0.83203125 1.65234375 1 4 C-0.71714471 6.06476912 -2.34503542 7.76927583 -4.3125 9.5625 C-8.48902294 13.47953876 -8.48902294 13.47953876 -12 18 C-13.32 17.67 -14.64 17.34 -16 17 C-12.77381012 12.05989675 -9.40096399 8.35333189 -4.8671875 4.578125 C-3.14941106 3.12628048 -1.56495069 1.61355165 0 0 Z " fill="#282828" transform="translate(357,342)"/>
<path d="M0 0 C0.66 0 1.32 0 2 0 C-0.01907447 4.52343312 -3.0457485 7.01516065 -6.75 10.1875 C-7.66265625 11.00637695 -7.66265625 11.00637695 -8.59375 11.84179688 C-12.31041624 15.04623026 -14.91803669 16.72719522 -20 17 C-19.67 16.34 -19.34 15.68 -19 15 C-18.34 15 -17.68 15 -17 15 C-16.67 14.01 -16.34 13.02 -16 12 C-15.195625 11.690625 -14.39125 11.38125 -13.5625 11.0625 C-10.86250657 10.27078859 -10.86250657 10.27078859 -10 8 C-8.60147088 5.20294175 -6.86348142 5.09085007 -4 4 C-2.64748503 2.68612831 -1.31054623 1.35573748 0 0 Z " fill="#262626" transform="translate(385,320)"/>
<path d="M0 0 C1 2 1 2 0.36328125 4.06640625 C-0.15685547 5.30197266 -0.15685547 5.30197266 -0.6875 6.5625 C-1.06132813 7.45710937 -1.43515625 8.35171875 -1.8203125 9.2734375 C-3.21024131 12.48592196 -4.61391284 15.69103367 -6.05078125 18.8828125 C-7.40603008 21.90563087 -8.70290929 24.95183682 -10 28 C-10.33 28 -10.66 28 -11 28 C-12.38414732 18.11323345 -6.06122527 9.11873965 -1 1 C-0.67 0.67 -0.34 0.34 0 0 Z " fill="#323232" transform="translate(119,172)"/>
<path d="M0 0 C0.66 0 1.32 0 2 0 C2.33 0.66 2.66 1.32 3 2 C3.66 2 4.32 2 5 2 C4.68950274 3.43793392 4.3765224 4.8753318 4.0625 6.3125 C3.88847656 7.11300781 3.71445312 7.91351563 3.53515625 8.73828125 C3 11 3 11 2 14 C1.34 14 0.68 14 0 14 C0 14.66 0 15.32 0 16 C-0.99 16 -1.98 16 -3 16 C-3.33 15.01 -3.66 14.02 -4 13 C-3.34 13 -2.68 13 -2 13 C-1.93941406 12.22914063 -1.87882812 11.45828125 -1.81640625 10.6640625 C-1.69072266 9.15972656 -1.69072266 9.15972656 -1.5625 7.625 C-1.48128906 6.62726563 -1.40007812 5.62953125 -1.31640625 4.6015625 C-1 2 -1 2 0 0 Z " fill="#7B7B7B" transform="translate(434,241)"/>
<path d="M0 0 C0.99 0.66 1.98 1.32 3 2 C3 2.66 3 3.32 3 4 C3.763125 4.268125 4.52625 4.53625 5.3125 4.8125 C7.87380884 5.94424112 9.19692938 6.91223401 11 9 C10.01 9.495 10.01 9.495 9 10 C8.01 9.34 7.02 8.68 6 8 C3.72461677 7.33386665 3.72461677 7.33386665 1.3125 6.875 C0.50425781 6.70742187 -0.30398438 6.53984375 -1.13671875 6.3671875 C-1.75160156 6.24601562 -2.36648438 6.12484375 -3 6 C-3 5.34 -3 4.68 -3 4 C-3.66 4 -4.32 4 -5 4 C-5.66 2.68 -6.32 1.36 -7 0 C-4.28569464 -1.35715268 -2.88661718 -0.77445827 0 0 Z " fill="#858585" transform="translate(319,102)"/>
<path d="M0 0 C1.32 0 2.64 0 4 0 C5.703125 1.96875 5.703125 1.96875 7.25 4.5 C8.03117187 5.75296875 8.03117187 5.75296875 8.828125 7.03125 C9.21484375 7.6809375 9.6015625 8.330625 10 9 C11.32 8.67 12.64 8.34 14 8 C14.66 9.65 15.32 11.3 16 13 C15.01 12.67 14.02 12.34 13 12 C12.67 13.65 12.34 15.3 12 17 C9 16 9 16 8.0859375 14.22265625 C7.85132813 13.50980469 7.61671875 12.79695312 7.375 12.0625 C6.66251244 9.95185136 5.99716245 7.9943249 5 6 C4.01 6.495 4.01 6.495 3 7 C3 5.68 3 4.36 3 3 C2.34 3 1.68 3 1 3 C0.67 2.01 0.34 1.02 0 0 Z " fill="#989898" transform="translate(417,191)"/>
<path d="M0 0 C0.33 1.32 0.66 2.64 1 4 C1.66 3.67 2.32 3.34 3 3 C1.60178299 5.97037488 -0.00592343 8.59592533 -1.9375 11.25 C-2.44152344 11.95640625 -2.94554687 12.6628125 -3.46484375 13.390625 C-4.22474609 14.18726563 -4.22474609 14.18726563 -5 15 C-5.99 15 -6.98 15 -8 15 C-6.31910452 8.85038239 -4.40439414 4.6424695 0 0 Z " fill="#494949" transform="translate(409,290)"/>
<path d="M0 0 C5.93806675 1.3703231 10.72595592 4.73495391 15 9 C15.6328125 11.1484375 15.6328125 11.1484375 16 13 C17.9837767 14.28436734 17.9837767 14.28436734 20 15 C19.01 15.495 19.01 15.495 18 16 C17.03578125 15.24074219 16.0715625 14.48148438 15.078125 13.69921875 C13.80210194 12.69528885 12.52605924 11.69138391 11.25 10.6875 C10.61578125 10.18798828 9.9815625 9.68847656 9.328125 9.17382812 C8.709375 8.68720703 8.090625 8.20058594 7.453125 7.69921875 C6.5569043 6.99224854 6.5569043 6.99224854 5.64257812 6.27099609 C4.30394443 5.23518649 2.92996711 4.24518381 1.546875 3.26953125 C1.03640625 2.85058594 0.5259375 2.43164062 0 2 C0 1.34 0 0.68 0 0 Z " fill="#989898" transform="translate(361,134)"/>
<path d="M0 0 C3.4375 0.8125 3.4375 0.8125 7 2 C7.33 2.99 7.66 3.98 8 5 C10.00016466 6.20882096 10.00016466 6.20882096 12 7 C12 7.66 12 8.32 12 9 C12.94875 9.103125 13.8975 9.20625 14.875 9.3125 C18 10 18 10 20 13 C20 13.99 20 14.98 20 16 C19.34 16 18.68 16 18 16 C18 15.34 18 14.68 18 14 C17.34 14 16.68 14 16 14 C16 13.34 16 12.68 16 12 C15.030625 11.7525 14.06125 11.505 13.0625 11.25 C12.051875 10.8375 11.04125 10.425 10 10 C9.125 7.875 9.125 7.875 9 6 C7.35 6 5.7 6 4 6 C3.67 5.01 3.34 4.02 3 3 C2.01 2.67 1.02 2.34 0 2 C0 1.34 0 0.68 0 0 Z " fill="#5C5C5C" transform="translate(325,112)"/>
<path d="M0 0 C1 3 1 3 -0.29296875 5.8828125 C-1.23076172 7.48769531 -1.23076172 7.48769531 -2.1875 9.125 C-2.79980469 10.20007813 -3.41210938 11.27515625 -4.04296875 12.3828125 C-6 15 -6 15 -8.23828125 15.8671875 C-8.81964844 15.91101563 -9.40101563 15.95484375 -10 16 C-10 15.34 -10 14.68 -10 14 C-9.34 14 -8.68 14 -8 14 C-7.87625 12.88625 -7.7525 11.7725 -7.625 10.625 C-7 7 -7 7 -5 5 C-4.30251417 3.68252676 -3.63040043 2.35085807 -3 1 C-2.01 1.33 -1.02 1.66 0 2 C0 1.34 0 0.68 0 0 Z " fill="#616262" transform="translate(434,255)"/>
<path d="M0 0 C2.6779661 5.3559322 2.6779661 5.3559322 2 9 C0.69918459 10.83011272 -0.74102926 12.43792211 -2.265625 14.0859375 C-5.08856159 17.2013405 -7.51789292 20.61130771 -10 24 C-10.64453125 22.203125 -10.64453125 22.203125 -11 20 C-8.6875 16.75 -8.6875 16.75 -6 14 C-5.34 14 -4.68 14 -4 14 C-3.67 12.68 -3.34 11.36 -3 10 C-2.34 10 -1.68 10 -1 10 C-0.67 6.7 -0.34 3.4 0 0 Z " fill="#2E2E2E" transform="translate(107,200)"/>
<path d="M0 0 C0.33 0 0.66 0 1 0 C0.67 12.21 0.34 24.42 0 37 C-0.33 37 -0.66 37 -1 37 C-1.06058594 35.865625 -1.12117188 34.73125 -1.18359375 33.5625 C-1.26808494 32.04165865 -1.35272851 30.52082575 -1.4375 29 C-1.47681641 28.25621094 -1.51613281 27.51242187 -1.55664062 26.74609375 C-1.77018014 22.96808692 -2.07630997 19.24900695 -2.59765625 15.5 C-2.73042969 14.345 -2.86320312 13.19 -3 12 C-2.67 11.67 -2.34 11.34 -2 11 C-1.60545777 9.15400312 -1.25823134 7.29774178 -0.9375 5.4375 C-0.76089844 4.42558594 -0.58429688 3.41367188 -0.40234375 2.37109375 C-0.20318359 1.19740234 -0.20318359 1.19740234 0 0 Z " fill="#373737" transform="translate(86,248)"/>
<path d="M0 0 C2.12985588 3.63656615 2.88751854 7.47589521 3.6875 11.5625 C3.82994141 12.23474609 3.97238281 12.90699219 4.11914062 13.59960938 C4.77535823 16.88722693 5.07859084 18.76422749 4 22 C0.92122321 17.3085306 -2.3343445 12.26239181 -1.7421875 6.484375 C-1.25072771 4.28318892 -0.69060716 2.14634744 0 0 Z " fill="#252525" transform="translate(88,303)"/>
<path d="M0 0 C-1.98 0.99 -1.98 0.99 -4 2 C0.29 2.33 4.58 2.66 9 3 C9 3.66 9 4.32 9 5 C8.34 5 7.68 5 7 5 C6.67 5.66 6.34 6.32 6 7 C6 6.34 6 5.68 6 5 C5.01 5.33 4.02 5.66 3 6 C2.34 5.67 1.68 5.34 1 5 C-2.04924878 4.76307995 -5.09724003 4.6176244 -8.15234375 4.4765625 C-11.21378263 3.96422293 -12.14565389 3.41646497 -14 1 C-9.23692563 0.04738513 -4.8333472 -0.08333357 0 0 Z " fill="#797979" transform="translate(220,88)"/>
<path d="M0 0 C0.99 0.33 1.98 0.66 3 1 C2.649375 1.763125 2.29875 2.52625 1.9375 3.3125 C0.67639116 6.04759379 0.67639116 6.04759379 2 9 C1.67 9.66 1.34 10.32 1 11 C-2.0625 11.625 -2.0625 11.625 -5 12 C-4.67 9.69 -4.34 7.38 -4 5 C-3.34 5 -2.68 5 -2 5 C-1.34 3.35 -0.68 1.7 0 0 Z " fill="#DFDFDF" transform="translate(86,212)"/>
<path d="M0 0 C0.33 0 0.66 0 1 0 C1 6.93 1 13.86 1 21 C0.01 21.33 -0.98 21.66 -2 22 C-2.33 15.73 -2.66 9.46 -3 3 C-2.34 4.32 -1.68 5.64 -1 7 C-0.67 4.69 -0.34 2.38 0 0 Z " fill="#949494" transform="translate(439,221)"/>
<path d="M0 0 C5.50015964 1.18630894 8.24489085 2.56214373 12 7 C12 7.33 12 7.66 12 8 C7.6305794 7.74297526 5.48177009 7.39976667 2.0625 4.5625 C0 2 0 2 0 0 Z " fill="#909090" transform="translate(331,112)"/>
<path d="M0 0 C1.32 0 2.64 0 4 0 C2.43181728 5.452999 0.96189783 9.76486783 -3 14 C-3.66 13.67 -4.32 13.34 -5 13 C-4.34 12.01 -3.68 11.02 -3 10 C-2.34 10 -1.68 10 -1 10 C-1.99 8.35 -2.98 6.7 -4 5 C-2.25 2.5 -2.25 2.5 0 0 Z " fill="#BFBFBF" transform="translate(175,110)"/>
<path d="M0 0 C0.66 0.33 1.32 0.66 2 1 C1.401875 1.66 0.80375 2.32 0.1875 3 C-1.69431768 5.58077854 -2.59578064 7.31540532 -3.625 10.25 C-5 14 -5 14 -7 15 C-7.65213292 17.02463255 -7.65213292 17.02463255 -8 19 C-8.99 19 -9.98 19 -11 19 C-10.37104172 16.06486136 -9.41105919 13.64573598 -8 11 C-7.67 10.34 -7.34 9.68 -7 9 C-6.34 9 -5.68 9 -5 9 C-5 7.68 -5 6.36 -5 5 C-2.5 2.25 -2.5 2.25 0 0 Z " fill="#3D3D3D" transform="translate(406,291)"/>
<path d="M0 0 C-2.41669337 1.20834668 -4.83378643 2.41570958 -7.25390625 3.6171875 C-8.96000428 4.47630372 -10.65733988 5.35336134 -12.33984375 6.2578125 C-14.19024884 7.24331689 -16.09258484 8.12995098 -18 9 C-18.99 8.67 -19.98 8.34 -21 8 C-19.56839732 6.99157547 -18.12948547 5.99352109 -16.6875 5 C-15.88699219 4.443125 -15.08648437 3.88625 -14.26171875 3.3125 C-12 2 -12 2 -9 2 C-9 1.34 -9 0.68 -9 0 C-2.25 -1.125 -2.25 -1.125 0 0 Z " fill="#393939" transform="translate(258,97)"/>
<path d="M0 0 C1.32 0.66 2.64 1.32 4 2 C3.67 3.32 3.34 4.64 3 6 C5.31 6 7.62 6 10 6 C10 6.33 10 6.66 10 7 C4.555 8.485 4.555 8.485 -1 10 C-1.33 8.35 -1.66 6.7 -2 5 C-1.34 4.01 -0.68 3.02 0 2 C0 1.34 0 0.68 0 0 Z " fill="#6E6E6E" transform="translate(231,93)"/>
<path d="M0 0 C3.875 1.75 3.875 1.75 5 4 C5.04022391 6.3329866 5.04320247 8.66706666 5 11 C1.5442399 9.84807997 0.80171463 9.08865366 -1 6 C-1.25 3.3125 -1.25 3.3125 -1 1 C-0.67 0.67 -0.34 0.34 0 0 Z " fill="#BEBEBE" transform="translate(430,202)"/>
<path d="M0 0 C2 1 2 1 3.1171875 3.5390625 C4.15410127 7.60413155 4.22297407 11.20733368 4.125 15.375 C4.11597656 16.11105469 4.10695313 16.84710938 4.09765625 17.60546875 C4.07430144 19.4037888 4.03843836 21.20193911 4 23 C3.67 23 3.34 23 3 23 C1.76464626 15.34800303 0.66257422 7.72422049 0 0 Z " fill="#C7C7C7" transform="translate(435,214)"/>
<path d="M0 0 C5.04969516 0.44556134 7.47618687 2.55813601 11 6 C11 6.99 11 7.98 11 9 C11.66 9 12.32 9 13 9 C13 9.66 13 10.32 13 11 C6.14125561 8.2926009 6.14125561 8.2926009 5.125 6.1875 C3.80034915 3.61179002 2.10584139 1.96545196 0 0 Z " fill="#777777" transform="translate(347,127)"/>
<path d="M0 0 C-1.32 0.33 -2.64 0.66 -4 1 C-4 1.99 -4 2.98 -4 4 C-4.639375 4.268125 -5.27875 4.53625 -5.9375 4.8125 C-8.33131686 5.88667752 -8.33131686 5.88667752 -9 9 C-11.5625 10.1875 -11.5625 10.1875 -14 11 C-12.68 9.02 -11.36 7.04 -10 5 C-10.66 4.34 -11.32 3.68 -12 3 C-10.5682384 2.30062798 -9.12932968 1.61587282 -7.6875 0.9375 C-6.48673828 0.36322266 -6.48673828 0.36322266 -5.26171875 -0.22265625 C-3 -1 -3 -1 0 0 Z " fill="#A0A0A0" transform="translate(198,95)"/>
<path d="M0 0 C4.95 0.33 9.9 0.66 15 1 C14.67 1.66 14.34 2.32 14 3 C11.27734375 3.4140625 11.27734375 3.4140625 7.9375 3.625 C6.83277344 3.69976562 5.72804687 3.77453125 4.58984375 3.8515625 C3.73519531 3.90054688 2.88054687 3.94953125 2 4 C1.34 2.68 0.68 1.36 0 0 Z " fill="#EAEAEA" transform="translate(241,91)"/>
<path d="M0 0 C0 3 0 3 -1.0625 5.0625 C-1.371875 5.701875 -1.68125 6.34125 -2 7 C-1.67 7.66 -1.34 8.32 -1 9 C-1.66 9 -2.32 9 -3 9 C-3.33 9.66 -3.66 10.32 -4 11 C-5.33333333 11.66666667 -6.66666667 12.33333333 -8 13 C-9.70921589 14.5412312 -9.70921589 14.5412312 -11 16 C-9.6020749 11.93064734 -7.66821145 9.06055399 -4.9375 5.75 C-4.22464844 4.87859375 -3.51179688 4.0071875 -2.77734375 3.109375 C-1.88187356 2.04661917 -0.98267919 0.98267919 0 0 Z " fill="#717171" transform="translate(109,174)"/>
<path d="M0 0 C0.99 0.33 1.98 0.66 3 1 C-1.24740335 4.45101522 -5.61105071 7.73279209 -10 11 C-10.66 10.67 -11.32 10.34 -12 10 C-6.13998035 2.46856582 -6.13998035 2.46856582 -1 1 C-0.67 0.67 -0.34 0.34 0 0 Z " fill="#AFAFAF" transform="translate(154,134)"/>
<path d="M0 0 C0.33 0 0.66 0 1 0 C1.042721 1.66611905 1.04063832 3.33382885 1 5 C0.67 5.33 0.34 5.66 0 6 C-0.53487482 8.50806849 -0.96405456 11.02807921 -1.40234375 13.5546875 C-2 16 -2 16 -4 19 C-4.50146657 11.42228293 -3.94998798 6.54216759 0 0 Z " fill="#252525" transform="translate(91,235)"/>
<path d="M0 0 C0.66 0.33 1.32 0.66 2 1 C1.54625 1.53625 1.0925 2.0725 0.625 2.625 C-1.13590812 4.95996541 -1.13590812 4.95996541 -1.9375 7.875 C-3.13839373 11.40704039 -4.74389079 14.03885666 -7 17 C-7.66 17 -8.32 17 -9 17 C-8.70996094 16.28199219 -8.41992188 15.56398438 -8.12109375 14.82421875 C-7.40574843 13.02214675 -6.70846176 11.21272873 -6.03515625 9.39453125 C-5.71417969 8.54246094 -5.39320313 7.69039063 -5.0625 6.8125 C-4.74410156 5.95269531 -4.42570313 5.09289062 -4.09765625 4.20703125 C-3 2 -3 2 0 0 Z " fill="#646464" transform="translate(187,104)"/>
<path d="M0 0 C0.66 0 1.32 0 2 0 C2 0.66 2 1.32 2 2 C3.32 1.67 4.64 1.34 6 1 C3.19195732 3.96404505 0.81684226 6.44499019 -3 8 C-2.34 7.01 -1.68 6.02 -1 5 C-2.98 5.66 -4.96 6.32 -7 7 C-4.66666667 4.66666667 -2.33333333 2.33333333 0 0 Z " fill="#727272" transform="translate(157,130)"/>
<path d="M0 0 C0.99 1.485 0.99 1.485 2 3 C0.68 3.99 -0.64 4.98 -2 6 C-2.309375 5.0409375 -2.309375 5.0409375 -2.625 4.0625 C-3.89538209 1.65074923 -3.89538209 1.65074923 -7.125 1.25 C-8.07375 1.1675 -9.0225 1.085 -10 1 C-9 -1 -9 -1 -7.25 -1.75 C-4.27721752 -2.08030916 -2.62815114 -1.38323744 0 0 Z " fill="#7B7B7B" transform="translate(347,120)"/>
<path d="M0 0 C1.32 0.33 2.64 0.66 4 1 C4.33 3.64 4.66 6.28 5 9 C4.01 9.33 3.02 9.66 2 10 C0.39644899 6.49223216 -0.22036864 3.85645121 0 0 Z " fill="#4B4B4B" transform="translate(81,291)"/>
<path d="M0 0 C0.5534764 2.07553648 1 3.84365964 1 6 C1.66 6.33 2.32 6.66 3 7 C-0.625 12.875 -0.625 12.875 -4 14 C-3.46148032 8.72250715 -2.22656164 4.74354436 0 0 Z " fill="#ADADAD" transform="translate(81,217)"/>
<path d="M0 0 C1.03930664 0.01353516 1.03930664 0.01353516 2.09960938 0.02734375 C3.79572395 0.05073843 5.49165871 0.08660359 7.1875 0.125 C7.1875 0.455 7.1875 0.785 7.1875 1.125 C5.6096875 1.3415625 5.6096875 1.3415625 4 1.5625 C1.90940877 1.87094789 -0.17988096 2.2003602 -2.25 2.625 C-5.75367019 3.30864296 -9.26769783 3.70443025 -12.8125 4.125 C-12.8125 3.465 -12.8125 2.805 -12.8125 2.125 C-8.53365394 0.0146565 -4.67385858 -0.11628739 0 0 Z " fill="#363636" transform="translate(272.8125,92.875)"/>
<path d="M0 0 C-1.53009089 3.44270451 -3.4931222 6.18925822 -6 9 C-6.99 9.33 -7.98 9.66 -9 10 C-8.60246179 8.53633658 -8.18118616 7.0791065 -7.75 5.625 C-7.51796875 4.81289062 -7.2859375 4.00078125 -7.046875 3.1640625 C-6 1 -6 1 -4.015625 -0.3515625 C-2 -1 -2 -1 0 0 Z " fill="#2B2B2B" transform="translate(101,223)"/>
<path d="M0 0 C0.66 0.33 1.32 0.66 2 1 C0.78192862 2.15762119 -0.45001235 3.3006583 -1.6875 4.4375 C-2.71423828 5.39462891 -2.71423828 5.39462891 -3.76171875 6.37109375 C-6.22289422 8.16221098 -8.00816574 8.62798558 -11 9 C-9.6089997 5.52614061 -8.33695343 4.32405371 -4.9375 2.8125 C-2.26504211 1.70341129 -2.26504211 1.70341129 0 0 Z " fill="#B4B4B4" transform="translate(184,103)"/>
<path d="M0 0 C0.33 0.66 0.66 1.32 1 2 C1.99 2 2.98 2 4 2 C4.66 4.97 5.32 7.94 6 11 C5.01 11.495 5.01 11.495 4 12 C3.32645501 10.56570999 2.66140299 9.12742943 2 7.6875 C1.62875 6.88699219 1.2575 6.08648437 0.875 5.26171875 C0 3 0 3 0 0 Z " fill="#0F0F0F" transform="translate(95,334)"/>
<path d="M0 0 C0.66 0.99 1.32 1.98 2 3 C1.67 3.99 1.34 4.98 1 6 C0.77439324 8.39254576 0.59151405 10.78928123 0.4375 13.1875 C0.35371094 14.45980469 0.26992187 15.73210937 0.18359375 17.04296875 C0.12300781 18.01878906 0.06242187 18.99460937 0 20 C-2 18 -2 18 -2.01171875 14.62890625 C-1.91455536 13.27261183 -1.80601122 11.91709602 -1.6875 10.5625 C-1.63916016 9.88123047 -1.59082031 9.19996094 -1.54101562 8.49804688 C-1.30754991 5.48072415 -0.96081176 2.88243528 0 0 Z " fill="#616161" transform="translate(77,253)"/>
<path d="M0 0 C0.66 1.32 1.32 2.64 2 4 C2.33 3.34 2.66 2.68 3 2 C3.99 2 4.98 2 6 2 C5.70351562 2.56203125 5.40703125 3.1240625 5.1015625 3.703125 C3.99056497 6.01967305 3.16535294 8.30709092 2.375 10.75 C2.11460938 11.54921875 1.85421875 12.3484375 1.5859375 13.171875 C1.39257812 13.77515625 1.19921875 14.3784375 1 15 C0.67 15 0.34 15 0 15 C0 10.05 0 5.1 0 0 Z " fill="#949494" transform="translate(75,234)"/>
<path d="M0 0 C0.99 0.33 1.98 0.66 3 1 C1.71034824 2.37562854 0.37310707 3.70766393 -1 5 C-1.66 5 -2.32 5 -3 5 C-3.268125 5.61875 -3.53625 6.2375 -3.8125 6.875 C-5 9 -5 9 -8 11 C-7.43040847 7.37386801 -6.07625466 5.74482259 -3.4375 3.25 C-2.79683594 2.63640625 -2.15617188 2.0228125 -1.49609375 1.390625 C-1.00238281 0.93171875 -0.50867188 0.4728125 0 0 Z " fill="#CECECE" transform="translate(132,152)"/>
<path d="M0 0 C1 2 1 2 0.4375 3.9375 C-1.55472772 6.79591369 -3.82687011 7.67786255 -7 9 C-7.66 9 -8.32 9 -9 9 C-9 8.34 -9 7.68 -9 7 C-7.03125 5.2734375 -7.03125 5.2734375 -4.5 3.375 C-3.6646875 2.74335937 -2.829375 2.11171875 -1.96875 1.4609375 C-1.3190625 0.97882813 -0.669375 0.49671875 0 0 Z " fill="#D9D9D9" transform="translate(168,123)"/>
<path d="M0 0 C0.33 0.99 0.66 1.98 1 3 C-0.62255228 4.48185125 -2.24811888 5.96040256 -3.875 7.4375 C-5.23238281 8.67306641 -5.23238281 8.67306641 -6.6171875 9.93359375 C-9 12 -9 12 -11 13 C-9.43638038 9.16202456 -6.97489917 6.8332373 -4 4 C-3.236875 3.236875 -2.47375 2.47375 -1.6875 1.6875 C-1.130625 1.130625 -0.57375 0.57375 0 0 Z " fill="#6F6F6F" transform="translate(135,152)"/>
<path d="M0 0 C3.63 0 7.26 0 11 0 C11 0.66 11 1.32 11 2 C11.66 2 12.32 2 13 2 C13 2.66 13 3.32 13 4 C11.58194169 3.71517632 10.16559621 3.42181856 8.75 3.125 C7.96109375 2.96257812 7.1721875 2.80015625 6.359375 2.6328125 C4 2 4 2 0 0 Z " fill="#939393" transform="translate(289,92)"/>
<path d="M0 0 C1.78409802 3.06246747 2.22880021 5.22079273 2.125 8.75 C2.10695313 9.54921875 2.08890625 10.3484375 2.0703125 11.171875 C2.03550781 12.07679688 2.03550781 12.07679688 2 13 C1.67 12.34 1.34 11.68 1 11 C0.34 11 -0.32 11 -1 11 C-1.33 9.35 -1.66 7.7 -2 6 C-1.67 6 -1.34 6 -1 6 C-0.67 4.02 -0.34 2.04 0 0 Z " fill="#2C2C2C" transform="translate(88,303)"/>
<path d="M0 0 C1 3 1 3 0.22265625 4.82421875 C-0.8515625 6.54947917 -1.92578125 8.27473958 -3 10 C-3.33 10 -3.66 10 -4 10 C-4 7.03 -4 4.06 -4 1 C-2.68 1.33 -1.36 1.66 0 2 C0 1.34 0 0.68 0 0 Z " fill="#5A5A5A" transform="translate(434,255)"/>
<path d="M0 0 C1.60080151 4.00200378 0.29279692 7.04556236 -1 11 C-1.66 11 -2.32 11 -3 11 C-3.33 11.99 -3.66 12.98 -4 14 C-4.125 8.25 -4.125 8.25 -3 6 C-2.34 6 -1.68 6 -1 6 C-0.67 4.02 -0.34 2.04 0 0 Z " fill="#5E5E5E" transform="translate(87,234)"/>
<path d="M0 0 C-2.96346786 2.47186455 -5.54041689 3.66248361 -9.25 4.6875 C-10.14203125 4.93886719 -11.0340625 5.19023437 -11.953125 5.44921875 C-12.62859375 5.63097656 -13.3040625 5.81273437 -14 6 C-9.97780608 1.50460679 -6.20919335 -2.06973112 0 0 Z " fill="#424242" transform="translate(174,129)"/>
<path d="M0 0 C3.4375 0.8125 3.4375 0.8125 7 2 C7.33 2.99 7.66 3.98 8 5 C8.99 5.33 9.98 5.66 11 6 C10.34 6.66 9.68 7.32 9 8 C9 7.34 9 6.68 9 6 C7.35 6 5.7 6 4 6 C3.67 5.01 3.34 4.02 3 3 C2.01 2.67 1.02 2.34 0 2 C0 1.34 0 0.68 0 0 Z " fill="#656565" transform="translate(325,112)"/>
<path d="M0 0 C3.65316671 1.24976756 4.78065836 1.67098753 7 5 C6.34 5 5.68 5 5 5 C5.99 6.65 6.98 8.3 8 10 C4.15654191 8.54213659 2.84920065 6.61034412 1 3 C0.67 2.01 0.34 1.02 0 0 Z " fill="#B5B5B5" transform="translate(410,177)"/>
<path d="M0 0 C2.89696854 0.36982577 5.37621929 0.68810965 8 2 C8 2.99 8 3.98 8 5 C5.03 4.505 5.03 4.505 2 4 C2 3.34 2 2.68 2 2 C1.01 1.67 0.02 1.34 -1 1 C-0.67 0.67 -0.34 0.34 0 0 Z " fill="#969696" transform="translate(305,96)"/>
<path d="M0 0 C1 2 1 2 0.1875 5.0625 C-1 8 -1 8 -3 9 C-3.33 9.99 -3.66 10.98 -4 12 C-4.66 12 -5.32 12 -6 12 C-5.1875 8.5625 -5.1875 8.5625 -4 5 C-3.01 4.67 -2.02 4.34 -1 4 C-0.26676204 1.98491642 -0.26676204 1.98491642 0 0 Z " fill="#606060" transform="translate(96,218)"/>
<path d="M0 0 C0.33 0.66 0.66 1.32 1 2 C0.05208333 3.421875 -0.89583333 4.84375 -1.84375 6.265625 C-2.41609375 7.12414062 -2.41609375 7.12414062 -3 8 C-4.33333333 10 -5.66666667 12 -7 14 C-7 10.12362061 -6.164434 7.26147017 -3.5 4.375 C-3.005 3.92125 -2.51 3.4675 -2 3 C-1.34 2.01 -0.68 1.02 0 0 Z " fill="#8D8D8D" transform="translate(114,174)"/>
<path d="M0 0 C2.64 0 5.28 0 8 0 C7.67 0.66 7.34 1.32 7 2 C-0.64288227 4.38056989 -0.64288227 4.38056989 -5 3 C-3.35 2.67 -1.7 2.34 0 2 C0 1.34 0 0.68 0 0 Z " fill="#505050" transform="translate(257,93)"/>
<path d="M0 0 C4.59306496 1.4859916 7.43569245 3.85014682 11 7 C9.3125 7.8125 9.3125 7.8125 7 8 C4.12969001 5.53973429 2.09673857 3.14510786 0 0 Z " fill="#898989" transform="translate(380,153)"/>
<path d="M0 0 C1.27450447 0.59638333 2.54446877 1.20247416 3.8125 1.8125 C4.52019531 2.14894531 5.22789062 2.48539062 5.95703125 2.83203125 C8.01129035 4.00645471 9.41616278 5.25628016 11 7 C10.01 7.495 10.01 7.495 9 8 C7.49460339 7.05016642 5.99579653 6.08988109 4.5 5.125 C3.6646875 4.59132813 2.829375 4.05765625 1.96875 3.5078125 C1.3190625 3.01023437 0.669375 2.51265625 0 2 C0 1.34 0 0.68 0 0 Z " fill="#B7B7B7" transform="translate(319,104)"/>
<path d="M0 0 C0.66 0.33 1.32 0.66 2 1 C-2.455 4.465 -2.455 4.465 -7 8 C-7.33 7.01 -7.66 6.02 -8 5 C-7.34 4.34 -6.68 3.68 -6 3 C-5.01 3 -4.02 3 -3 3 C-3 2.34 -3 1.68 -3 1 C-2.01 0.67 -1.02 0.34 0 0 Z " fill="#6F6F6F" transform="translate(197,96)"/>
<path d="M0 0 C3.96 0 7.92 0 12 0 C12 0.66 12 1.32 12 2 C11.34 2 10.68 2 10 2 C9.67 2.66 9.34 3.32 9 4 C9 3.34 9 2.68 9 2 C8.01 2.33 7.02 2.66 6 3 C2.8125 2.0625 2.8125 2.0625 0 1 C0 0.67 0 0.34 0 0 Z " fill="#686868" transform="translate(217,91)"/>
<path d="M0 0 C0.99 0 1.98 0 3 0 C1.68775452 3.93673644 0.08089673 6.22719294 -3 9 C-3 7.35 -3 5.7 -3 4 C-2.01 4 -1.02 4 0 4 C-0.33 3.01 -0.66 2.02 -1 1 C-0.67 0.67 -0.34 0.34 0 0 Z " fill="#373737" transform="translate(420,277)"/>
<path d="M0 0 C1 3 1 3 1 5 C0.01 5 -0.98 5 -2 5 C-2.66 7.31 -3.32 9.62 -4 12 C-4.66 12 -5.32 12 -6 12 C-4.68139111 7.38486888 -2.78644563 3.90102388 0 0 Z " fill="#686868" transform="translate(93,196)"/>
<path d="M0 0 C0.66 0.33 1.32 0.66 2 1 C0.92643323 2.15498897 -0.15929788 3.29867867 -1.25 4.4375 C-1.85328125 5.07558594 -2.4565625 5.71367187 -3.078125 6.37109375 C-5.10048016 8.08516306 -6.41270605 8.59358878 -9 9 C-8.34 8.01 -7.68 7.02 -7 6 C-6.34 6 -5.68 6 -5 6 C-4.67 5.01 -4.34 4.02 -4 3 C-1.9375 1.3125 -1.9375 1.3125 0 0 Z " fill="#333333" transform="translate(137,153)"/>
<path d="M0 0 C0.66 0 1.32 0 2 0 C1.40072174 3.35595828 0.15377564 5.37801226 -2 8 C-2.66 7.01 -3.32 6.02 -4 5 C-2.71937515 3.2925002 -1.38232443 1.62626404 0 0 Z " fill="#F3F3F3" transform="translate(175,110)"/>
<path d="M0 0 C0.33 0 0.66 0 1 0 C1.36923077 6.52307692 1.36923077 6.52307692 -0.5 8.9375 C-0.995 9.288125 -1.49 9.63875 -2 10 C-2.25 3.375 -2.25 3.375 0 0 Z " fill="#111111" transform="translate(92,238)"/>
<path d="M0 0 C0.33 0 0.66 0 1 0 C1.37211538 7.56634615 1.37211538 7.56634615 -0.51171875 9.76171875 C-1.00285156 10.17035156 -1.49398437 10.57898438 -2 11 C-1.85957123 9.35369672 -1.71250671 7.70795821 -1.5625 6.0625 C-1.48128906 5.14597656 -1.40007812 4.22945312 -1.31640625 3.28515625 C-1 1 -1 1 0 0 Z " fill="#6F6F6F" transform="translate(102,200)"/>
<path d="M0 0 C0.66 0.33 1.32 0.66 2 1 C-4.28571429 6.57142857 -4.28571429 6.57142857 -8 7 C-8.33 6.34 -8.66 5.68 -9 5 C-7.54735962 4.1361871 -6.0876837 3.28419546 -4.625 2.4375 C-3.40683594 1.72400391 -3.40683594 1.72400391 -2.1640625 0.99609375 C-1.44992188 0.66738281 -0.73578125 0.33867188 0 0 Z " fill="#2C2C2C" transform="translate(176,127)"/>
<path d="M0 0 C0.33 0.99 0.66 1.98 1 3 C-0.65 4.65 -2.3 6.3 -4 8 C-3.67 5.69 -3.34 3.38 -3 1 C-2.01 0.67 -1.02 0.34 0 0 Z " fill="#616161" transform="translate(413,287)"/>
<path d="M0 0 C0.33 0.66 0.66 1.32 1 2 C0.22265625 3.9453125 0.22265625 3.9453125 -0.9375 6.125 C-1.31777344 6.84945312 -1.69804688 7.57390625 -2.08984375 8.3203125 C-2.39019531 8.87460938 -2.69054687 9.42890625 -3 10 C-3.33 10 -3.66 10 -4 10 C-3.38461538 3.47692308 -3.38461538 3.47692308 -1.4375 1.0625 C-0.7259375 0.5365625 -0.7259375 0.5365625 0 0 Z " fill="#3D3D3D" transform="translate(91,233)"/>
<path d="M0 0 C0.33 0.99 0.66 1.98 1 3 C-1.33333333 7.66666667 -1.33333333 7.66666667 -4 9 C-3.38461538 3.46153846 -3.38461538 3.46153846 -1.4375 1.125 C-0.963125 0.75375 -0.48875 0.3825 0 0 Z " fill="#3E3E3E" transform="translate(100,215)"/>
<path d="M0 0 C2.8751945 1.28888029 5.0071564 2.53266983 7 5 C7.6875 7.1875 7.6875 7.1875 8 9 C7.34 9 6.68 9 6 9 C5.67 8.01 5.34 7.02 5 6 C3.33729713 4.66172696 1.67083819 3.32810215 0 2 C0 1.34 0 0.68 0 0 Z " fill="#8A8A8A" transform="translate(409,181)"/>
<path d="M0 0 C3.96 0 7.92 0 12 0 C12 0.33 12 0.66 12 1 C10.02 1 8.04 1 6 1 C6 1.66 6 2.32 6 3 C3.5625 2.625 3.5625 2.625 1 2 C0.67 1.34 0.34 0.68 0 0 Z " fill="#BEBEBE" transform="translate(235,90)"/>
<path d="M0 0 C1.485 0.99 1.485 0.99 3 2 C3.1875 5.125 3.1875 5.125 3 8 C2.01 7.67 1.02 7.34 0 7 C0 4.69 0 2.38 0 0 Z " fill="#454545" transform="translate(85,302)"/>
<path d="M0 0 C1.98 0.495 1.98 0.495 4 1 C2.75023244 4.65316671 2.32901247 5.78065836 -1 8 C-0.835 7.236875 -0.67 6.47375 -0.5 5.6875 C0.09145396 2.96403764 0.09145396 2.96403764 0 0 Z " fill="#373737" transform="translate(413,285)"/>
<path d="M0 0 C0.33 1.32 0.66 2.64 1 4 C-0.8125 5.5625 -0.8125 5.5625 -3 7 C-3.99 6.67 -4.98 6.34 -6 6 C-5.34 6 -4.68 6 -4 6 C-3.71125 5.38125 -3.4225 4.7625 -3.125 4.125 C-2 2 -2 2 0 0 Z " fill="#AFAFAF" transform="translate(87,226)"/>
<path d="M0 0 C0.66 0.66 1.32 1.32 2 2 C2.66 1.67 3.32 1.34 4 1 C4 1.99 4 2.98 4 4 C3.34 4 2.68 4 2 4 C2 4.66 2 5.32 2 6 C1.01 6 0.02 6 -1 6 C-1.33 5.01 -1.66 4.02 -2 3 C-1.34 3 -0.68 3 0 3 C0 2.01 0 1.02 0 0 Z " fill="#6E6E6E" transform="translate(432,251)"/>
<path d="M0 0 C0.66 0 1.32 0 2 0 C2 1.32 2 2.64 2 4 C1.34 4 0.68 4 0 4 C-0.66 5.32 -1.32 6.64 -2 8 C-3 5 -3 5 -1.6875 2.3125 C-1.130625 1.549375 -0.57375 0.78625 0 0 Z " fill="#E7E7E7" transform="translate(96,193)"/>
<path d="M0 0 C0.33 0.66 0.66 1.32 1 2 C-1.36292656 4.52588702 -2.66462511 5.88820837 -6 7 C-5.67 5.68 -5.34 4.36 -5 3 C-4.01 3 -3.02 3 -2 3 C-1.34 2.01 -0.68 1.02 0 0 Z " fill="#CCCCCC" transform="translate(112,175)"/>
<path d="M0 0 C0.99 0 1.98 0 3 0 C3.66 1.32 4.32 2.64 5 4 C4.34 4.66 3.68 5.32 3 6 C1.5 4.6875 1.5 4.6875 0 3 C0 2.01 0 1.02 0 0 Z " fill="#0E0E0E" transform="translate(124,377)"/>
<path d="M0 0 C0.33 0.99 0.66 1.98 1 3 C0.34 3.66 -0.32 4.32 -1 5 C-1.99 5 -2.98 5 -4 5 C-3.6875 3.0625 -3.6875 3.0625 -3 1 C-2.01 0.67 -1.02 0.34 0 0 Z " fill="#BEBEBE" transform="translate(81,229)"/>
<path d="M0 0 C3.36720387 1.39332574 4.9859524 2.9789286 7 6 C5.35 6 3.7 6 2 6 C1.34 4.02 0.68 2.04 0 0 Z " fill="#626262" transform="translate(385,152)"/>
<path d="M0 0 C2.475 0.99 2.475 0.99 5 2 C5 2.66 5 3.32 5 4 C5.66 4 6.32 4 7 4 C7 4.66 7 5.32 7 6 C2.25 4.125 2.25 4.125 0 3 C0 2.01 0 1.02 0 0 Z " fill="#636363" transform="translate(353,132)"/>
<path d="M0 0 C-0.33 0.66 -0.66 1.32 -1 2 C-3.06640625 2.6328125 -3.06640625 2.6328125 -5.5625 3.125 C-6.80193359 3.37636719 -6.80193359 3.37636719 -8.06640625 3.6328125 C-8.70449219 3.75398438 -9.34257812 3.87515625 -10 4 C-7.93026888 -0.13946223 -4.25879356 -0.23659964 0 0 Z " fill="#797979" transform="translate(209,92)"/>
<path d="" fill="#000000" transform="translate(0,0)"/>
<path d="" fill="#000000" transform="translate(0,0)"/>
<path d="" fill="#000000" transform="translate(0,0)"/>
<path d="" fill="#000000" transform="translate(0,0)"/>
<path d="" fill="#000000" transform="translate(0,0)"/>
<path d="" fill="#000000" transform="translate(0,0)"/>
<path d="" fill="#000000" transform="translate(0,0)"/>
<path d="" fill="#000000" transform="translate(0,0)"/>
<path d="" fill="#000000" transform="translate(0,0)"/>
<path d="" fill="#000000" transform="translate(0,0)"/>
<path d="" fill="#000000" transform="translate(0,0)"/>
<path d="" fill="#000000" transform="translate(0,0)"/>
<path d="" fill="#000000" transform="translate(0,0)"/>
<path d="" fill="#000000" transform="translate(0,0)"/>
<path d="" fill="#000000" transform="translate(0,0)"/>
<path d="" fill="#000000" transform="translate(0,0)"/>
<path d="" fill="#000000" transform="translate(0,0)"/>
<path d="" fill="#000000" transform="translate(0,0)"/>
<path d="" fill="#000000" transform="translate(0,0)"/>
<path d="" fill="#000000" transform="translate(0,0)"/>
<path d="" fill="#000000" transform="translate(0,0)"/>
<path d="" fill="#000000" transform="translate(0,0)"/>
<path d="" fill="#000000" transform="translate(0,0)"/>
<path d="" fill="#000000" transform="translate(0,0)"/>
<path d="" fill="#000000" transform="translate(0,0)"/>
<path d="" fill="#000000" transform="translate(0,0)"/>
<path d="" fill="#000000" transform="translate(0,0)"/>
<path d="" fill="#000000" transform="translate(0,0)"/>
<path d="" fill="#000000" transform="translate(0,0)"/>
<path d="" fill="#000000" transform="translate(0,0)"/>
<path d="" fill="#000000" transform="translate(0,0)"/>
<path d="" fill="#000000" transform="translate(0,0)"/>
<path d="" fill="#000000" transform="translate(0,0)"/>
<path d="" fill="#000000" transform="translate(0,0)"/>
<path d="" fill="#000000" transform="translate(0,0)"/>
<path d="" fill="#000000" transform="translate(0,0)"/>
<path d="" fill="#000000" transform="translate(0,0)"/>
<path d="" fill="#000000" transform="translate(0,0)"/>
<path d="" fill="#000000" transform="translate(0,0)"/>
<path d="" fill="#000000" transform="translate(0,0)"/>
<path d="" fill="#000000" transform="translate(0,0)"/>
<path d="" fill="#000000" transform="translate(0,0)"/>
<path d="" fill="#000000" transform="translate(0,0)"/>
<path d="" fill="#000000" transform="translate(0,0)"/>
<path d="" fill="#000000" transform="translate(0,0)"/>
<path d="" fill="#000000" transform="translate(0,0)"/>
<path d="" fill="#000000" transform="translate(0,0)"/>
<path d="" fill="#000000" transform="translate(0,0)"/>
<path d="" fill="#000000" transform="translate(0,0)"/>
<path d="" fill="#000000" transform="translate(0,0)"/>
<path d="" fill="#000000" transform="translate(0,0)"/>
<path d="" fill="#000000" transform="translate(0,0)"/>
</svg>
